<?xml version="1.0" encoding="utf-8"?>
<!-- Generator: Adobe Illustrator 16.0.0, SVG Export Plug-In . SVG Version: 6.00 Build 0)  -->
<!DOCTYPE svg PUBLIC "-//W3C//DTD SVG 1.1//EN" "http://www.w3.org/Graphics/SVG/1.1/DTD/svg11.dtd">
<svg version="1.1" id="Layer_1" xmlns="http://www.w3.org/2000/svg" xmlns:xlink="http://www.w3.org/1999/xlink" x="0px" y="0px"
	 width="1900.347px" height="492.816px" viewBox="0 0 1900.347 492.816" enable-background="new 0 0 1900.347 492.816"
	 xml:space="preserve">
<polygon fill="#4061AD" points="601.614,326.478 566.624,326.478 539.489,217.476 539.034,217.476 512.347,326.478 476.687,326.478 
	434.294,166.338 469.513,166.338 494.862,275.341 495.304,275.341 523.116,166.338 556.087,166.338 583.445,276.682 
	583.893,276.682 610.139,166.338 644.674,166.338 "/>
<path fill="#4061AD" d="M700.323,207.384c36.563,0,60.113,24.234,60.113,61.225c0,36.782-23.55,61.017-60.113,61.017
	c-36.334,0-59.88-24.234-59.88-61.017C640.442,231.618,663.989,207.384,700.323,207.384 M700.323,305.624
	c21.754,0,28.264-18.623,28.264-37.015c0-18.6-6.51-37.23-28.264-37.23c-21.532,0-28.031,18.631-28.031,37.23
	C672.292,287,678.791,305.624,700.323,305.624"/>
<path fill="#4061AD" d="M777.698,210.524h30.283v21.532h0.448c5.836-14.58,21.528-24.672,37.005-24.672
	c2.244,0,4.933,0.444,6.944,1.122v29.605c-2.914-0.671-7.615-1.122-11.443-1.122c-23.314,0-31.387,16.828-31.387,37.23v52.259
	h-31.85V210.524z"/>
<rect x="867.417" y="166.338" fill="#4061AD" width="31.85" height="160.14"/>
<path fill="#4061AD" d="M1004.229,311.672h-0.444c-7.41,12.562-20.41,17.954-35.216,17.954c-34.989,0-52.033-30.063-52.033-62.139
	c0-31.169,17.27-60.103,51.362-60.103c13.684,0,27.135,5.835,34.319,17.276h0.445v-58.321h31.849v160.14h-30.282V311.672z
	 M976.423,231.378c-20.867,0-28.039,17.96-28.039,37.011c0,18.172,8.294,37.234,28.039,37.234c21.08,0,27.361-18.391,27.361-37.453
	C1003.784,249.339,997.052,231.378,976.423,231.378"/>
<path fill="#4061AD" d="M1058.28,210.524h30.282v21.532h0.444c5.836-14.58,21.532-24.672,37.008-24.672
	c2.245,0,4.94,0.444,6.953,1.122v29.605c-2.916-0.671-7.623-1.122-11.44-1.122c-23.331,0-31.405,16.828-31.405,37.23v52.259h-31.842
	V210.524z"/>
<path fill="#4061AD" d="M1170.46,276.245c0.904,20.184,10.771,29.379,28.49,29.379c12.781,0,23.099-7.854,25.124-15.024h28.024
	c-8.963,27.354-28.024,39.026-54.271,39.026c-36.556,0-59.21-25.124-59.21-61.017c0-34.754,23.995-61.225,59.21-61.225
	c39.472,0,58.54,33.197,56.296,68.861H1170.46z M1222.274,256.047c-2.914-16.144-9.872-24.663-25.342-24.663
	c-20.191,0-26.021,15.702-26.473,24.663H1222.274z"/>
<path fill="#4061AD" d="M1271.386,246.184c1.801-29.831,28.49-38.8,54.497-38.8c23.112,0,50.925,5.159,50.925,32.971v60.33
	c0,10.55,1.122,21.086,4.036,25.794h-32.301c-1.122-3.585-2.019-7.403-2.244-11.207c-10.092,10.537-24.892,14.354-39.021,14.354
	c-21.982,0-39.477-11.002-39.477-34.771c0-26.246,19.738-32.527,39.477-35.208c19.508-2.915,37.68-2.244,37.68-15.254
	c0-13.684-9.422-15.696-20.635-15.696c-12.11,0-19.965,4.927-21.088,17.488H1271.386z M1344.958,269.731
	c-5.392,4.707-16.599,4.939-26.465,6.732c-9.88,2.025-18.842,5.378-18.842,17.05c0,11.878,9.195,14.792,19.512,14.792
	c24.898,0,25.795-19.731,25.795-26.683V269.731z"/>
<path fill="#4061AD" d="M1481.086,311.672h-0.438c-7.403,12.562-20.402,17.954-35.215,17.954c-34.99,0-52.033-30.063-52.033-62.139
	c0-31.169,17.269-60.103,51.369-60.103c13.677,0,27.128,5.835,34.306,17.276h0.451v-58.321h31.849v160.14h-30.288V311.672z
	 M1453.286,231.378c-20.861,0-28.045,17.96-28.045,37.011c0,18.172,8.307,37.234,28.045,37.234
	c21.081,0,27.361-18.391,27.361-37.453C1480.647,249.339,1473.915,231.378,1453.286,231.378"/>
<path fill="#4061AD" d="M1560.274,276.245c0.896,20.184,10.762,29.379,28.477,29.379c12.787,0,23.104-7.854,25.123-15.024h28.039
	c-8.971,27.354-28.039,39.026-54.277,39.026c-36.557,0-59.21-25.124-59.21-61.017c0-34.754,23.994-61.225,59.21-61.225
	c39.471,0,58.539,33.197,56.296,68.861H1560.274z M1612.081,256.047c-2.914-16.144-9.865-24.663-25.342-24.663
	c-20.197,0-26.027,15.702-26.465,24.663H1612.081z"/>
<path fill="#4061AD" d="M1659.401,210.524h30.282v21.532h0.444c5.836-14.58,21.532-24.672,37.008-24.672
	c2.244,0,4.933,0.444,6.951,1.122v29.605c-2.914-0.671-7.621-1.122-11.434-1.122c-23.323,0-31.404,16.828-31.404,37.23v52.259
	h-31.848V210.524z"/>
<path fill="#4061AD" d="M249.349,329.598c45.947,0,83.171-37.275,83.171-83.168C286.621,246.43,249.349,283.674,249.349,329.598"/>
<path fill="#4061AD" d="M166.26,246.43c0,45.893,37.251,83.168,83.085,83.168C249.346,283.674,212.149,246.43,166.26,246.43"/>
<path fill="#4061AD" d="M294.67,208.636c0-25.069-20.283-45.376-45.321-45.376c-24.963,0-45.293,20.307-45.293,45.376
	c0,24.959,20.331,45.29,45.293,45.29"/>
<path fill="#4061AD" d="M249.349,253.926c25.038,0,45.321-20.331,45.321-45.29"/>
</svg>
