<?xml version="1.0" encoding="UTF-8" standalone="no"?>
<!DOCTYPE svg PUBLIC "-//W3C//DTD SVG 1.1//EN"
 "http://www.w3.org/Graphics/SVG/1.1/DTD/svg11.dtd">
<!-- Generated by graphviz version 2.38.0 (20140413.2041)
 -->
<!-- Title: controllers_diagram Pages: 1 -->
<svg width="680pt" height="623pt"
 viewBox="0.00 0.00 679.53 623.00" xmlns="http://www.w3.org/2000/svg" xmlns:xlink="http://www.w3.org/1999/xlink">
<g id="graph0" class="graph" transform="scale(1 1) rotate(0) translate(259.383 364.5)">
<title>controllers_diagram</title>
<polygon fill="white" stroke="none" points="-259.383,258.5 -259.383,-364.5 420.148,-364.5 420.148,258.5 -259.383,258.5"/>
<!-- _diagram_info -->
<g id="node1" class="node"><title>_diagram_info</title>
<text text-anchor="start" x="144.312" y="76.9" font-family="Times,serif" font-size="13.00">Controllers diagram</text>
<text text-anchor="start" x="144.312" y="89.9" font-family="Times,serif" font-size="13.00">Date: Feb 01 2015 &#45; 12:34</text>
<text text-anchor="start" x="144.312" y="102.9" font-family="Times,serif" font-size="13.00">Migration version: 20150127203041</text>
<text text-anchor="start" x="144.312" y="115.9" font-family="Times,serif" font-size="13.00">Generated by RailRoady 1.3.0</text>
<text text-anchor="start" x="144.312" y="128.9" font-family="Times,serif" font-size="13.00">http://railroady.prestonlee.com</text>
</g>
<!-- Admin::DashboardController -->
<g id="node2" class="node"><title>Admin::DashboardController</title>
<path fill="none" stroke="black" d="M-89.5278,135C-89.5278,135 87.5278,135 87.5278,135 93.5278,135 99.5278,129 99.5278,123 99.5278,123 99.5278,-111 99.5278,-111 99.5278,-117 93.5278,-123 87.5278,-123 87.5278,-123 -89.5278,-123 -89.5278,-123 -95.5278,-123 -101.528,-117 -101.528,-111 -101.528,-111 -101.528,123 -101.528,123 -101.528,129 -95.5278,135 -89.5278,135"/>
<text text-anchor="middle" x="-1" y="-107.8" font-family="Times,serif" font-size="14.00">Admin::DashboardController</text>
<polyline fill="none" stroke="black" points="-101.528,-101 99.5278,-101 "/>
<text text-anchor="start" x="-93.5278" y="-85.8" font-family="Times,serif" font-size="14.00">convert_purchases</text>
<text text-anchor="start" x="-93.5278" y="-71.8" font-family="Times,serif" font-size="14.00">disapprove_purchases</text>
<text text-anchor="start" x="-93.5278" y="-57.8" font-family="Times,serif" font-size="14.00">display_all_partners</text>
<text text-anchor="start" x="-93.5278" y="-43.8" font-family="Times,serif" font-size="14.00">display_book</text>
<text text-anchor="start" x="-93.5278" y="-29.8" font-family="Times,serif" font-size="14.00">display_books</text>
<text text-anchor="start" x="-93.5278" y="-15.8" font-family="Times,serif" font-size="14.00">display_groups</text>
<text text-anchor="start" x="-93.5278" y="-1.8" font-family="Times,serif" font-size="14.00">display_partners_new_purchases</text>
<text text-anchor="start" x="-93.5278" y="12.2" font-family="Times,serif" font-size="14.00">display_purchases</text>
<text text-anchor="start" x="-93.5278" y="26.2" font-family="Times,serif" font-size="14.00">generate_csv</text>
<text text-anchor="start" x="-93.5278" y="40.2" font-family="Times,serif" font-size="14.00">get_number_purchases</text>
<text text-anchor="start" x="-93.5278" y="54.2" font-family="Times,serif" font-size="14.00">index</text>
<text text-anchor="start" x="-93.5278" y="68.2" font-family="Times,serif" font-size="14.00">partner_information</text>
<polyline fill="none" stroke="black" points="-101.528,75 99.5278,75 "/>
<polyline fill="none" stroke="black" points="-101.528,99 99.5278,99 "/>
<text text-anchor="start" x="-93.5278" y="114.2" font-family="Times,serif" font-size="14.00">_layout</text>
<text text-anchor="start" x="-93.5278" y="128.2" font-family="Times,serif" font-size="14.00">verify_admin</text>
</g>
<!-- Api::V1::BooksController -->
<g id="node3" class="node"><title>Api::V1::BooksController</title>
<path fill="none" stroke="black" d="M-55.5,-154C-55.5,-154 83.5,-154 83.5,-154 89.5,-154 95.5,-160 95.5,-166 95.5,-166 95.5,-246 95.5,-246 95.5,-252 89.5,-258 83.5,-258 83.5,-258 -55.5,-258 -55.5,-258 -61.5,-258 -67.5,-252 -67.5,-246 -67.5,-246 -67.5,-166 -67.5,-166 -67.5,-160 -61.5,-154 -55.5,-154"/>
<text text-anchor="middle" x="14" y="-242.8" font-family="Times,serif" font-size="14.00">Api::V1::BooksController</text>
<polyline fill="none" stroke="black" points="-67.5,-236 95.5,-236 "/>
<text text-anchor="start" x="-59.5" y="-220.8" font-family="Times,serif" font-size="14.00">page</text>
<text text-anchor="start" x="-59.5" y="-206.8" font-family="Times,serif" font-size="14.00">search</text>
<polyline fill="none" stroke="black" points="-67.5,-200 95.5,-200 "/>
<polyline fill="none" stroke="black" points="-67.5,-176 95.5,-176 "/>
<text text-anchor="start" x="-59.5" y="-160.8" font-family="Times,serif" font-size="14.00">_layout</text>
</g>
<!-- Api::V1::CartsController -->
<g id="node4" class="node"><title>Api::V1::CartsController</title>
<path fill="none" stroke="black" d="M-243.383,-256C-243.383,-256 -110.617,-256 -110.617,-256 -104.617,-256 -98.6172,-262 -98.6172,-268 -98.6172,-268 -98.6172,-348 -98.6172,-348 -98.6172,-354 -104.617,-360 -110.617,-360 -110.617,-360 -243.383,-360 -243.383,-360 -249.383,-360 -255.383,-354 -255.383,-348 -255.383,-348 -255.383,-268 -255.383,-268 -255.383,-262 -249.383,-256 -243.383,-256"/>
<text text-anchor="middle" x="-177" y="-344.8" font-family="Times,serif" font-size="14.00">Api::V1::CartsController</text>
<polyline fill="none" stroke="black" points="-255.383,-338 -98.6172,-338 "/>
<text text-anchor="start" x="-247.383" y="-322.8" font-family="Times,serif" font-size="14.00">add</text>
<text text-anchor="start" x="-247.383" y="-308.8" font-family="Times,serif" font-size="14.00">remove</text>
<polyline fill="none" stroke="black" points="-255.383,-302 -98.6172,-302 "/>
<polyline fill="none" stroke="black" points="-255.383,-278 -98.6172,-278 "/>
<text text-anchor="start" x="-247.383" y="-262.8" font-family="Times,serif" font-size="14.00">_layout</text>
</g>
<!-- ApplicationController -->
<g id="node5" class="node"><title>ApplicationController</title>
<path fill="none" stroke="black" d="M283.852,-86C283.852,-86 404.148,-86 404.148,-86 410.148,-86 416.148,-92 416.148,-98 416.148,-98 416.148,-192 416.148,-192 416.148,-198 410.148,-204 404.148,-204 404.148,-204 283.852,-204 283.852,-204 277.852,-204 271.852,-198 271.852,-192 271.852,-192 271.852,-98 271.852,-98 271.852,-92 277.852,-86 283.852,-86"/>
<text text-anchor="middle" x="344" y="-188.8" font-family="Times,serif" font-size="14.00">ApplicationController</text>
<polyline fill="none" stroke="black" points="271.852,-182 416.148,-182 "/>
<text text-anchor="start" x="279.852" y="-166.8" font-family="Times,serif" font-size="14.00">after_sign_in_path_for</text>
<text text-anchor="start" x="279.852" y="-152.8" font-family="Times,serif" font-size="14.00">set_user_cart</text>
<text text-anchor="start" x="279.852" y="-138.8" font-family="Times,serif" font-size="14.00">store_location</text>
<polyline fill="none" stroke="black" points="271.852,-132 416.148,-132 "/>
<polyline fill="none" stroke="black" points="271.852,-108 416.148,-108 "/>
<text text-anchor="start" x="279.852" y="-92.8" font-family="Times,serif" font-size="14.00">_layout</text>
</g>
<!-- BooksController -->
<g id="node6" class="node"><title>BooksController</title>
<path fill="none" stroke="black" d="M-225.666,-1C-225.666,-1 -140.334,-1 -140.334,-1 -134.334,-1 -128.334,-7 -128.334,-13 -128.334,-13 -128.334,-107 -128.334,-107 -128.334,-113 -134.334,-119 -140.334,-119 -140.334,-119 -225.666,-119 -225.666,-119 -231.666,-119 -237.666,-113 -237.666,-107 -237.666,-107 -237.666,-13 -237.666,-13 -237.666,-7 -231.666,-1 -225.666,-1"/>
<text text-anchor="middle" x="-183" y="-103.8" font-family="Times,serif" font-size="14.00">BooksController</text>
<polyline fill="none" stroke="black" points="-237.666,-97 -128.334,-97 "/>
<text text-anchor="start" x="-229.666" y="-81.8" font-family="Times,serif" font-size="14.00">index</text>
<text text-anchor="start" x="-229.666" y="-67.8" font-family="Times,serif" font-size="14.00">show</text>
<polyline fill="none" stroke="black" points="-237.666,-61 -128.334,-61 "/>
<polyline fill="none" stroke="black" points="-237.666,-37 -128.334,-37 "/>
<text text-anchor="start" x="-229.666" y="-21.8" font-family="Times,serif" font-size="14.00">_layout</text>
<text text-anchor="start" x="-229.666" y="-7.8" font-family="Times,serif" font-size="14.00">search_tags</text>
</g>
<!-- CartsController -->
<g id="node7" class="node"><title>CartsController</title>
<path fill="none" stroke="black" d="M-226.08,152C-226.08,152 -143.92,152 -143.92,152 -137.92,152 -131.92,146 -131.92,140 -131.92,140 -131.92,46 -131.92,46 -131.92,40 -137.92,34 -143.92,34 -143.92,34 -226.08,34 -226.08,34 -232.08,34 -238.08,40 -238.08,46 -238.08,46 -238.08,140 -238.08,140 -238.08,146 -232.08,152 -226.08,152"/>
<text text-anchor="middle" x="-185" y="49.2" font-family="Times,serif" font-size="14.00">CartsController</text>
<polyline fill="none" stroke="black" points="-238.08,56 -131.92,56 "/>
<text text-anchor="start" x="-230.08" y="71.2" font-family="Times,serif" font-size="14.00">create_purchase</text>
<text text-anchor="start" x="-230.08" y="85.2" font-family="Times,serif" font-size="14.00">delete</text>
<text text-anchor="start" x="-230.08" y="99.2" font-family="Times,serif" font-size="14.00">show</text>
<polyline fill="none" stroke="black" points="-238.08,106 -131.92,106 "/>
<polyline fill="none" stroke="black" points="-238.08,130 -131.92,130 "/>
<text text-anchor="start" x="-230.08" y="145.2" font-family="Times,serif" font-size="14.00">_layout</text>
</g>
<!-- RecommendationController -->
<g id="node8" class="node"><title>RecommendationController</title>
<path fill="none" stroke="black" d="M11.8516,254C11.8516,254 160.148,254 160.148,254 166.148,254 172.148,248 172.148,242 172.148,242 172.148,174 172.148,174 172.148,168 166.148,162 160.148,162 160.148,162 11.8516,162 11.8516,162 5.85156,162 -0.148438,168 -0.148438,174 -0.148438,174 -0.148438,242 -0.148438,242 -0.148438,248 5.85156,254 11.8516,254"/>
<text text-anchor="middle" x="86" y="177.2" font-family="Times,serif" font-size="14.00">RecommendationController</text>
<polyline fill="none" stroke="black" points="-0.148438,184 172.148,184 "/>
<polyline fill="none" stroke="black" points="-0.148438,208 172.148,208 "/>
<polyline fill="none" stroke="black" points="-0.148438,232 172.148,232 "/>
<text text-anchor="start" x="7.85156" y="247.2" font-family="Times,serif" font-size="14.00">_layout</text>
</g>
<!-- RegistrationsController -->
<g id="node9" class="node"><title>RegistrationsController</title>
<path fill="none" stroke="black" d="M148.034,33C148.034,33 321.966,33 321.966,33 327.966,33 333.966,27 333.966,21 333.966,21 333.966,-45 333.966,-45 333.966,-51 327.966,-57 321.966,-57 321.966,-57 148.034,-57 148.034,-57 142.034,-57 136.034,-51 136.034,-45 136.034,-45 136.034,21 136.034,21 136.034,27 142.034,33 148.034,33"/>
<text text-anchor="middle" x="235" y="-41.8" font-family="Times,serif" font-size="14.00">RegistrationsController</text>
<polyline fill="none" stroke="black" points="136.034,-35 333.966,-35 "/>
<polyline fill="none" stroke="black" points="136.034,-11 333.966,-11 "/>
<text text-anchor="start" x="144.034" y="4.2" font-family="Times,serif" font-size="14.00">configure_permitted_parameters</text>
<polyline fill="none" stroke="black" points="136.034,11 333.966,11 "/>
<text text-anchor="start" x="144.034" y="26.2" font-family="Times,serif" font-size="14.00">_layout</text>
</g>
<!-- UsersController -->
<g id="node10" class="node"><title>UsersController</title>
<path fill="none" stroke="black" d="M148.286,-86C148.286,-86 229.714,-86 229.714,-86 235.714,-86 241.714,-92 241.714,-98 241.714,-98 241.714,-234 241.714,-234 241.714,-240 235.714,-246 229.714,-246 229.714,-246 148.286,-246 148.286,-246 142.286,-246 136.286,-240 136.286,-234 136.286,-234 136.286,-98 136.286,-98 136.286,-92 142.286,-86 148.286,-86"/>
<text text-anchor="middle" x="189" y="-230.8" font-family="Times,serif" font-size="14.00">UsersController</text>
<polyline fill="none" stroke="black" points="136.286,-224 241.714,-224 "/>
<text text-anchor="start" x="144.286" y="-208.8" font-family="Times,serif" font-size="14.00">destroy</text>
<text text-anchor="start" x="144.286" y="-194.8" font-family="Times,serif" font-size="14.00">index</text>
<text text-anchor="start" x="144.286" y="-180.8" font-family="Times,serif" font-size="14.00">show</text>
<text text-anchor="start" x="144.286" y="-166.8" font-family="Times,serif" font-size="14.00">update</text>
<polyline fill="none" stroke="black" points="136.286,-160 241.714,-160 "/>
<polyline fill="none" stroke="black" points="136.286,-136 241.714,-136 "/>
<text text-anchor="start" x="144.286" y="-120.8" font-family="Times,serif" font-size="14.00">_layout</text>
<text text-anchor="start" x="144.286" y="-106.8" font-family="Times,serif" font-size="14.00">admin_only</text>
<text text-anchor="start" x="144.286" y="-92.8" font-family="Times,serif" font-size="14.00">secure_params</text>
</g>
</g>
</svg>
