<?xml version="1.0" encoding="UTF-8" standalone="no"?>
<!DOCTYPE svg PUBLIC "-//W3C//DTD SVG 1.1//EN"
 "http://www.w3.org/Graphics/SVG/1.1/DTD/svg11.dtd">
<!-- Generated by graphviz version 2.38.0 (20140413.2041)
 -->
<!-- Title: models_diagram Pages: 1 -->
<svg width="1324pt" height="297pt"
 viewBox="0.00 0.00 1324.44 297.00" xmlns="http://www.w3.org/2000/svg" xmlns:xlink="http://www.w3.org/1999/xlink">
<g id="graph0" class="graph" transform="scale(1 1) rotate(0) translate(4 293)">
<title>models_diagram</title>
<polygon fill="white" stroke="none" points="-4,4 -4,-293 1320.44,-293 1320.44,4 -4,4"/>
<!-- _diagram_info -->
<g id="node1" class="node"><title>_diagram_info</title>
<text text-anchor="start" x="8" y="-274.6" font-family="Times,serif" font-size="13.00">Models diagram</text>
<text text-anchor="start" x="8" y="-261.6" font-family="Times,serif" font-size="13.00">Date: Feb 10 2015 &#45; 14:39</text>
<text text-anchor="start" x="8" y="-248.6" font-family="Times,serif" font-size="13.00">Migration version: 20150209052524</text>
<text text-anchor="start" x="8" y="-235.6" font-family="Times,serif" font-size="13.00">Generated by RailRoady 1.3.0</text>
<text text-anchor="start" x="8" y="-222.6" font-family="Times,serif" font-size="13.00">http://railroady.prestonlee.com</text>
</g>
<!-- Ability -->
<g id="node2" class="node"><title>Ability</title>
<polygon fill="none" stroke="black" points="281.358,-270.5 226.018,-270.5 226.018,-234.5 281.358,-234.5 281.358,-270.5"/>
<text text-anchor="middle" x="253.688" y="-248.3" font-family="Times,serif" font-size="14.00">Ability</text>
</g>
<!-- Author -->
<g id="node3" class="node"><title>Author</title>
<ellipse fill="none" stroke="black" cx="547.688" cy="-252.5" rx="35.3216" ry="18"/>
<text text-anchor="middle" x="547.688" y="-248.3" font-family="Times,serif" font-size="14.00">Author</text>
</g>
<!-- Book -->
<g id="node5" class="node"><title>Book</title>
<ellipse fill="none" stroke="black" cx="557.688" cy="-162" rx="29.0429" ry="18"/>
<text text-anchor="middle" x="557.688" y="-157.8" font-family="Times,serif" font-size="14.00">Book</text>
</g>
<!-- Author&#45;&gt;Book -->
<g id="edge1" class="edge"><title>Author&#45;&gt;Book</title>
<path fill="none" stroke="#09543b" d="M550.785,-224.092C552.005,-213.289 553.404,-200.912 554.622,-190.136"/>
<polygon fill="#09543b" stroke="#09543b" points="550.739,-224.5 545.144,-233.931 550.177,-229.468 549.616,-234.436 549.616,-234.436 549.616,-234.436 550.177,-229.468 554.087,-234.942 550.739,-224.5 550.739,-224.5"/>
<polygon fill="#09543b" stroke="#09543b" points="554.643,-189.948 560.237,-180.517 555.204,-184.98 555.766,-180.011 555.766,-180.011 555.766,-180.011 555.204,-184.98 551.294,-179.506 554.643,-189.948 554.643,-189.948"/>
</g>
<!-- AuthorsBooks -->
<g id="node4" class="node"><title>AuthorsBooks</title>
<ellipse fill="none" stroke="black" cx="839.688" cy="-252.5" rx="61.4151" ry="18"/>
<text text-anchor="middle" x="839.688" y="-248.3" font-family="Times,serif" font-size="14.00">AuthorsBooks</text>
</g>
<!-- Group -->
<g id="node11" class="node"><title>Group</title>
<ellipse fill="none" stroke="black" cx="568.688" cy="-18" rx="32.9081" ry="18"/>
<text text-anchor="middle" x="568.688" y="-13.8" font-family="Times,serif" font-size="14.00">Group</text>
</g>
<!-- Book&#45;&gt;Group -->
<g id="edge4" class="edge"><title>Book&#45;&gt;Group</title>
<path fill="none" stroke="#f464a4" d="M559.804,-133.679C561.747,-108.599 564.611,-71.6271 566.558,-46.4929"/>
<polygon fill="#f464a4" stroke="#f464a4" points="559.787,-133.901 554.528,-143.524 559.401,-138.886 559.015,-143.871 559.015,-143.871 559.015,-143.871 559.401,-138.886 563.501,-144.219 559.787,-133.901 559.787,-133.901"/>
<polygon fill="#f464a4" stroke="#f464a4" points="566.584,-46.1594 571.843,-36.5369 566.97,-41.1743 567.356,-36.1893 567.356,-36.1893 567.356,-36.1893 566.97,-41.1743 562.87,-35.8417 566.584,-46.1594 566.584,-46.1594"/>
</g>
<!-- Level -->
<g id="node13" class="node"><title>Level</title>
<ellipse fill="none" stroke="black" cx="347.688" cy="-90" rx="30.4775" ry="18"/>
<text text-anchor="middle" x="347.688" y="-85.8" font-family="Times,serif" font-size="14.00">Level</text>
</g>
<!-- Book&#45;&gt;Level -->
<g id="edge5" class="edge"><title>Book&#45;&gt;Level</title>
<path fill="none" stroke="#4e26cf" d="M521.823,-150.948C487.177,-140.972 433.38,-124.785 387.688,-108 385.333,-107.135 382.915,-106.208 380.49,-105.249"/>
<polygon fill="#4e26cf" stroke="#4e26cf" points="521.882,-150.964 530.259,-158.041 526.69,-152.34 531.497,-153.715 531.497,-153.715 531.497,-153.715 526.69,-152.34 532.734,-149.388 521.882,-150.964 521.882,-150.964"/>
<polygon fill="#4e26cf" stroke="#4e26cf" points="380.478,-105.245 372.923,-97.2963 375.85,-103.353 371.221,-101.462 371.221,-101.462 371.221,-101.462 375.85,-103.353 369.519,-105.628 380.478,-105.245 380.478,-105.245"/>
</g>
<!-- Purchase -->
<g id="node15" class="node"><title>Purchase</title>
<ellipse fill="none" stroke="black" cx="661.688" cy="-18" rx="42.0611" ry="18"/>
<text text-anchor="middle" x="661.688" y="-13.8" font-family="Times,serif" font-size="14.00">Purchase</text>
</g>
<!-- Book&#45;&gt;Purchase -->
<g id="edge2" class="edge"><title>Book&#45;&gt;Purchase</title>
<path fill="none" stroke="#91653c" d="M574.206,-138.446C593.111,-112.633 623.98,-70.4861 643.542,-43.7764"/>
<ellipse fill="none" stroke="#91653c" cx="571.578" cy="-142.034" rx="4.00002" ry="4.00002"/>
<polygon fill="#91653c" stroke="#91653c" points="643.557,-43.7548 653.097,-38.346 646.512,-39.7209 649.466,-35.6871 649.466,-35.6871 649.466,-35.6871 646.512,-39.7209 645.836,-33.0282 643.557,-43.7548 643.557,-43.7548"/>
</g>
<!-- Recommendation -->
<g id="node16" class="node"><title>Recommendation</title>
<ellipse fill="none" stroke="black" cx="468.688" cy="-90" rx="72.4722" ry="18"/>
<text text-anchor="middle" x="468.688" y="-85.8" font-family="Times,serif" font-size="14.00">Recommendation</text>
</g>
<!-- Book&#45;&gt;Recommendation -->
<g id="edge6" class="edge"><title>Book&#45;&gt;Recommendation</title>
<path fill="none" stroke="#c35c35" d="M532.092,-140.869C521.287,-132.37 508.656,-122.435 497.523,-113.68"/>
<polygon fill="#c35c35" stroke="#c35c35" points="532.244,-140.988 537.322,-150.707 536.174,-144.079 540.104,-147.17 540.104,-147.17 540.104,-147.17 536.174,-144.079 542.886,-143.633 532.244,-140.988 532.244,-140.988"/>
<polygon fill="#c35c35" stroke="#c35c35" points="497.218,-113.44 492.14,-103.72 493.288,-110.348 489.358,-107.257 489.358,-107.257 489.358,-107.257 493.288,-110.348 486.576,-110.794 497.218,-113.44 497.218,-113.44"/>
</g>
<!-- User -->
<g id="node17" class="node"><title>User</title>
<ellipse fill="none" stroke="black" cx="661.688" cy="-90" rx="27" ry="18"/>
<text text-anchor="middle" x="661.688" y="-85.8" font-family="Times,serif" font-size="14.00">User</text>
</g>
<!-- Book&#45;&gt;User -->
<g id="edge3" class="edge"><title>Book&#45;&gt;User</title>
<path fill="none" stroke="#706a70" d="M585.063,-142.575C600.467,-132.206 619.619,-119.315 634.923,-109.015"/>
<polygon fill="#706a70" stroke="#706a70" points="585.059,-142.577 574.25,-144.428 580.911,-145.369 576.763,-148.161 576.763,-148.161 576.763,-148.161 580.911,-145.369 579.276,-151.894 585.059,-142.577 585.059,-142.577"/>
<polygon fill="#706a70" stroke="#706a70" points="635.135,-108.872 645.944,-107.021 639.283,-106.08 643.431,-103.288 643.431,-103.288 643.431,-103.288 639.283,-106.08 640.918,-99.5551 635.135,-108.872 635.135,-108.872"/>
</g>
<!-- BooksCountries -->
<g id="node6" class="node"><title>BooksCountries</title>
<ellipse fill="none" stroke="black" cx="985.688" cy="-252.5" rx="67.203" ry="18"/>
<text text-anchor="middle" x="985.688" y="-248.3" font-family="Times,serif" font-size="14.00">BooksCountries</text>
</g>
<!-- BooksLevels -->
<g id="node7" class="node"><title>BooksLevels</title>
<ellipse fill="none" stroke="black" cx="1126.69" cy="-252.5" rx="56.07" ry="18"/>
<text text-anchor="middle" x="1126.69" y="-248.3" font-family="Times,serif" font-size="14.00">BooksLevels</text>
</g>
<!-- Country -->
<g id="node8" class="node"><title>Country</title>
<ellipse fill="none" stroke="black" cx="721.688" cy="-252.5" rx="39.1887" ry="18"/>
<text text-anchor="middle" x="721.688" y="-248.3" font-family="Times,serif" font-size="14.00">Country</text>
</g>
<!-- Country&#45;&gt;Book -->
<g id="edge7" class="edge"><title>Country&#45;&gt;Book</title>
<path fill="none" stroke="#a217c7" d="M696.777,-231.553C689.54,-226.182 681.481,-220.594 673.688,-216 647.033,-200.286 614.912,-185.935 591.236,-176.141"/>
<ellipse fill="none" stroke="#a217c7" cx="699.973" cy="-233.973" rx="4.00002" ry="4.00002"/>
<polygon fill="#a217c7" stroke="#a217c7" points="591.227,-176.137 583.667,-168.194 586.597,-174.249 581.967,-172.361 581.967,-172.361 581.967,-172.361 586.597,-174.249 580.268,-176.527 591.227,-176.137 591.227,-176.137"/>
</g>
<!-- Country&#45;&gt;User -->
<g id="edge8" class="edge"><title>Country&#45;&gt;User</title>
<path fill="none" stroke="#b9f4e6" d="M712.449,-226.786C701.344,-197.081 682.793,-147.457 671.457,-117.134"/>
<ellipse fill="none" stroke="#b9f4e6" cx="713.979" cy="-230.88" rx="4.00001" ry="4.00001"/>
<polygon fill="#b9f4e6" stroke="#b9f4e6" points="671.413,-117.014 672.126,-106.071 669.662,-112.33 667.911,-107.647 667.911,-107.647 667.911,-107.647 669.662,-112.33 663.696,-109.223 671.413,-117.014 671.413,-117.014"/>
</g>
<!-- FailedUpdate -->
<g id="node9" class="node"><title>FailedUpdate</title>
<ellipse fill="none" stroke="black" cx="1258.69" cy="-252.5" rx="57.9979" ry="18"/>
<text text-anchor="middle" x="1258.69" y="-248.3" font-family="Times,serif" font-size="14.00">FailedUpdate</text>
</g>
<!-- Genre -->
<g id="node10" class="node"><title>Genre</title>
<ellipse fill="none" stroke="black" cx="632.688" cy="-252.5" rx="31.9219" ry="18"/>
<text text-anchor="middle" x="632.688" y="-248.3" font-family="Times,serif" font-size="14.00">Genre</text>
</g>
<!-- Genre&#45;&gt;Book -->
<g id="edge9" class="edge"><title>Genre&#45;&gt;Book</title>
<path fill="none" stroke="#478453" d="M614.127,-229.599C602.92,-216.374 588.652,-199.538 577.266,-186.102"/>
<ellipse fill="none" stroke="#478453" cx="617.038" cy="-233.033" rx="4.00002" ry="4.00002"/>
<polygon fill="#478453" stroke="#478453" points="577.067,-185.868 574.035,-175.33 573.835,-182.053 570.602,-178.239 570.602,-178.239 570.602,-178.239 573.835,-182.053 567.169,-181.148 577.067,-185.868 577.067,-185.868"/>
</g>
<!-- Language -->
<g id="node12" class="node"><title>Language</title>
<ellipse fill="none" stroke="black" cx="344.688" cy="-252.5" rx="44.9423" ry="18"/>
<text text-anchor="middle" x="344.688" y="-248.3" font-family="Times,serif" font-size="14.00">Language</text>
</g>
<!-- Language&#45;&gt;Book -->
<g id="edge10" class="edge"><title>Language&#45;&gt;Book</title>
<path fill="none" stroke="#708e3b" d="M371.178,-231.719C379.398,-226.148 388.672,-220.411 397.688,-216 438.183,-196.187 487.885,-181.026 521.046,-172.094"/>
<ellipse fill="none" stroke="#708e3b" cx="367.834" cy="-234.044" rx="4.00002" ry="4.00002"/>
<polygon fill="#708e3b" stroke="#708e3b" points="521.109,-172.077 531.927,-173.874 525.944,-170.8 530.778,-169.523 530.778,-169.523 530.778,-169.523 525.944,-170.8 529.629,-165.173 521.109,-172.077 521.109,-172.077"/>
</g>
<!-- Publisher -->
<g id="node14" class="node"><title>Publisher</title>
<ellipse fill="none" stroke="black" cx="450.688" cy="-252.5" rx="43.5319" ry="18"/>
<text text-anchor="middle" x="450.688" y="-248.3" font-family="Times,serif" font-size="14.00">Publisher</text>
</g>
<!-- Publisher&#45;&gt;Book -->
<g id="edge11" class="edge"><title>Publisher&#45;&gt;Book</title>
<path fill="none" stroke="#1e4973" d="M475.531,-230.952C492.719,-216.736 515.505,-197.89 532.72,-183.651"/>
<ellipse fill="none" stroke="#1e4973" cx="472.408" cy="-233.535" rx="4.00002" ry="4.00002"/>
<polygon fill="#1e4973" stroke="#1e4973" points="532.968,-183.445 543.542,-180.54 536.821,-180.259 540.674,-177.072 540.674,-177.072 540.674,-177.072 536.821,-180.259 537.806,-173.604 532.968,-183.445 532.968,-183.445"/>
</g>
<!-- User&#45;&gt;Group -->
<g id="edge12" class="edge"><title>User&#45;&gt;Group</title>
<path fill="none" stroke="#226f70" d="M637.781,-71.0056C624.916,-61.322 609.002,-49.3442 595.691,-39.3253"/>
<ellipse fill="none" stroke="#226f70" cx="640.999" cy="-73.428" rx="4.00002" ry="4.00002"/>
<polygon fill="#226f70" stroke="#226f70" points="595.368,-39.082 590.085,-29.4728 591.373,-36.0751 587.378,-33.0682 587.378,-33.0682 587.378,-33.0682 591.373,-36.0751 584.672,-36.6636 595.368,-39.082 595.368,-39.082"/>
</g>
<!-- User&#45;&gt;Purchase -->
<g id="edge13" class="edge"><title>User&#45;&gt;Purchase</title>
<path fill="none" stroke="#64e195" d="M661.688,-63.6398C661.688,-58.0629 661.688,-52.1319 661.688,-46.4761"/>
<ellipse fill="none" stroke="#64e195" cx="661.688" cy="-67.6966" rx="4" ry="4"/>
<polygon fill="#64e195" stroke="#64e195" points="661.688,-46.1043 666.188,-36.1043 661.688,-41.1043 661.688,-36.1043 661.688,-36.1043 661.688,-36.1043 661.688,-41.1043 657.188,-36.1044 661.688,-46.1043 661.688,-46.1043"/>
</g>
</g>
</svg>
