<?xml version="1.0" encoding="UTF-8" standalone="no"?>
<!DOCTYPE svg PUBLIC "-//W3C//DTD SVG 1.1//EN"
 "http://www.w3.org/Graphics/SVG/1.1/DTD/svg11.dtd">
<!-- Generated by graphviz version 2.38.0 (20140413.2041)
 -->
<!-- Title: models_diagram Pages: 1 -->
<svg width="1553pt" height="1976pt"
 viewBox="0.00 0.00 1553.19 1976.00" xmlns="http://www.w3.org/2000/svg" xmlns:xlink="http://www.w3.org/1999/xlink">
<g id="graph0" class="graph" transform="scale(1 1) rotate(0) translate(4 1972)">
<title>models_diagram</title>
<polygon fill="white" stroke="none" points="-4,4 -4,-1972 1549.19,-1972 1549.19,4 -4,4"/>
<!-- _diagram_info -->
<g id="node1" class="node"><title>_diagram_info</title>
<text text-anchor="start" x="8" y="-1757.6" font-family="Times,serif" font-size="13.00">Models diagram</text>
<text text-anchor="start" x="8" y="-1744.6" font-family="Times,serif" font-size="13.00">Date: Feb 10 2015 &#45; 14:39</text>
<text text-anchor="start" x="8" y="-1731.6" font-family="Times,serif" font-size="13.00">Migration version: 20150209052524</text>
<text text-anchor="start" x="8" y="-1718.6" font-family="Times,serif" font-size="13.00">Generated by RailRoady 1.3.0</text>
<text text-anchor="start" x="8" y="-1705.6" font-family="Times,serif" font-size="13.00">http://railroady.prestonlee.com</text>
</g>
<!-- Ability -->
<g id="node2" class="node"><title>Ability</title>
<polygon fill="none" stroke="black" points="225.853,-1713.5 225.853,-1757.5 281.522,-1757.5 281.522,-1713.5 225.853,-1713.5"/>
<text text-anchor="middle" x="253.688" y="-1742.3" font-family="Times,serif" font-size="14.00">Ability</text>
<polyline fill="none" stroke="black" points="225.853,-1735.5 281.522,-1735.5 "/>
<text text-anchor="middle" x="253.688" y="-1720.3" font-family="Times,serif" font-size="14.00"> </text>
</g>
<!-- Author -->
<g id="node3" class="node"><title>Author</title>
<path fill="none" stroke="black" d="M711.182,-1678.5C711.182,-1678.5 820.193,-1678.5 820.193,-1678.5 826.193,-1678.5 832.193,-1684.5 832.193,-1690.5 832.193,-1690.5 832.193,-1780.5 832.193,-1780.5 832.193,-1786.5 826.193,-1792.5 820.193,-1792.5 820.193,-1792.5 711.182,-1792.5 711.182,-1792.5 705.182,-1792.5 699.182,-1786.5 699.182,-1780.5 699.182,-1780.5 699.182,-1690.5 699.182,-1690.5 699.182,-1684.5 705.182,-1678.5 711.182,-1678.5"/>
<text text-anchor="middle" x="765.688" y="-1777.3" font-family="Times,serif" font-size="14.00">Author</text>
<polyline fill="none" stroke="black" points="699.182,-1770.5 832.193,-1770.5 "/>
<text text-anchor="start" x="707.182" y="-1755.3" font-family="Times,serif" font-size="14.00">id :integer</text>
<text text-anchor="start" x="707.182" y="-1741.3" font-family="Times,serif" font-size="14.00">name :string</text>
<text text-anchor="start" x="707.182" y="-1727.3" font-family="Times,serif" font-size="14.00">origin_id :integer</text>
<text text-anchor="start" x="707.182" y="-1713.3" font-family="Times,serif" font-size="14.00">created_at :datetime</text>
<text text-anchor="start" x="707.182" y="-1699.3" font-family="Times,serif" font-size="14.00">updated_at :datetime</text>
<text text-anchor="start" x="707.182" y="-1685.3" font-family="Times,serif" font-size="14.00">comments :text</text>
</g>
<!-- Book -->
<g id="node5" class="node"><title>Book</title>
<path fill="none" stroke="black" d="M634.872,-484.5C634.872,-484.5 916.504,-484.5 916.504,-484.5 922.504,-484.5 928.504,-490.5 928.504,-496.5 928.504,-496.5 928.504,-1454.5 928.504,-1454.5 928.504,-1460.5 922.504,-1466.5 916.504,-1466.5 916.504,-1466.5 634.872,-1466.5 634.872,-1466.5 628.872,-1466.5 622.872,-1460.5 622.872,-1454.5 622.872,-1454.5 622.872,-496.5 622.872,-496.5 622.872,-490.5 628.872,-484.5 634.872,-484.5"/>
<text text-anchor="middle" x="775.688" y="-1451.3" font-family="Times,serif" font-size="14.00">Book</text>
<polyline fill="none" stroke="black" points="622.872,-1444.5 928.504,-1444.5 "/>
<text text-anchor="start" x="630.872" y="-1429.3" font-family="Times,serif" font-size="14.00">id :integer</text>
<text text-anchor="start" x="630.872" y="-1415.3" font-family="Times,serif" font-size="14.00">asin :string</text>
<text text-anchor="start" x="630.872" y="-1401.3" font-family="Times,serif" font-size="14.00">title :string</text>
<text text-anchor="start" x="630.872" y="-1387.3" font-family="Times,serif" font-size="14.00">price :decimal</text>
<text text-anchor="start" x="630.872" y="-1373.3" font-family="Times,serif" font-size="14.00">rating :integer</text>
<text text-anchor="start" x="630.872" y="-1359.3" font-family="Times,serif" font-size="14.00">flagged :boolean</text>
<text text-anchor="start" x="630.872" y="-1345.3" font-family="Times,serif" font-size="14.00">copublished :boolean</text>
<text text-anchor="start" x="630.872" y="-1331.3" font-family="Times,serif" font-size="14.00">publisher_id :integer</text>
<text text-anchor="start" x="630.872" y="-1317.3" font-family="Times,serif" font-size="14.00">language_id :integer</text>
<text text-anchor="start" x="630.872" y="-1303.3" font-family="Times,serif" font-size="14.00">genre_id :integer</text>
<text text-anchor="start" x="630.872" y="-1289.3" font-family="Times,serif" font-size="14.00">description :text</text>
<text text-anchor="start" x="630.872" y="-1275.3" font-family="Times,serif" font-size="14.00">created_at :datetime</text>
<text text-anchor="start" x="630.872" y="-1261.3" font-family="Times,serif" font-size="14.00">updated_at :datetime</text>
<text text-anchor="start" x="630.872" y="-1247.3" font-family="Times,serif" font-size="14.00">date_added :date</text>
<text text-anchor="start" x="630.872" y="-1233.3" font-family="Times,serif" font-size="14.00">restricted :boolean</text>
<text text-anchor="start" x="630.872" y="-1219.3" font-family="Times,serif" font-size="14.00">limited :integer</text>
<text text-anchor="start" x="630.872" y="-1205.3" font-family="Times,serif" font-size="14.00">fiction_type_id :integer</text>
<text text-anchor="start" x="630.872" y="-1191.3" font-family="Times,serif" font-size="14.00">textbook_level_id :integer</text>
<text text-anchor="start" x="630.872" y="-1177.3" font-family="Times,serif" font-size="14.00">textbook_subject_id :integer</text>
<text text-anchor="start" x="630.872" y="-1163.3" font-family="Times,serif" font-size="14.00">book_status_id :integer</text>
<text text-anchor="start" x="630.872" y="-1149.3" font-family="Times,serif" font-size="14.00">source_file :boolean</text>
<text text-anchor="start" x="630.872" y="-1135.3" font-family="Times,serif" font-size="14.00">source_cover :boolean</text>
<text text-anchor="start" x="630.872" y="-1121.3" font-family="Times,serif" font-size="14.00">mobi :boolean</text>
<text text-anchor="start" x="630.872" y="-1107.3" font-family="Times,serif" font-size="14.00">epub :boolean</text>
<text text-anchor="start" x="630.872" y="-1093.3" font-family="Times,serif" font-size="14.00">fixed_epub :boolean</text>
<text text-anchor="start" x="630.872" y="-1079.3" font-family="Times,serif" font-size="14.00">comments :text</text>
<text text-anchor="start" x="630.872" y="-1065.3" font-family="Times,serif" font-size="14.00">mou_fname :string</text>
<text text-anchor="start" x="630.872" y="-1051.3" font-family="Times,serif" font-size="14.00">origin_id :integer</text>
<text text-anchor="start" x="630.872" y="-1037.3" font-family="Times,serif" font-size="14.00">appstatus_id :integer</text>
<text text-anchor="start" x="630.872" y="-1023.3" font-family="Times,serif" font-size="14.00">appstatus :string</text>
<text text-anchor="start" x="630.872" y="-1009.3" font-family="Times,serif" font-size="14.00">keywords :string</text>
<text text-anchor="start" x="630.872" y="-995.3" font-family="Times,serif" font-size="14.00">read_level_id :integer</text>
<text text-anchor="start" x="630.872" y="-981.3" font-family="Times,serif" font-size="14.00">textbook_sumlevel_id :integer</text>
<text text-anchor="start" x="630.872" y="-967.3" font-family="Times,serif" font-size="14.00">category_id :integer</text>
<text text-anchor="start" x="630.872" y="-953.3" font-family="Times,serif" font-size="14.00">subcategory_id :integer</text>
<text text-anchor="start" x="630.872" y="-939.3" font-family="Times,serif" font-size="14.00">in_store :boolean</text>
<text text-anchor="start" x="630.872" y="-925.3" font-family="Times,serif" font-size="14.00">binu_source_file_name :string</text>
<text text-anchor="start" x="630.872" y="-911.3" font-family="Times,serif" font-size="14.00">binu_paperback_equivalent :string</text>
<text text-anchor="start" x="630.872" y="-897.3" font-family="Times,serif" font-size="14.00">binu_sort_title :string</text>
<text text-anchor="start" x="630.872" y="-883.3" font-family="Times,serif" font-size="14.00">binu_series :string</text>
<text text-anchor="start" x="630.872" y="-869.3" font-family="Times,serif" font-size="14.00">binu_creator_1_name :string</text>
<text text-anchor="start" x="630.872" y="-855.3" font-family="Times,serif" font-size="14.00">binu_creator_1_role :string</text>
<text text-anchor="start" x="630.872" y="-841.3" font-family="Times,serif" font-size="14.00">binu_publisher :string</text>
<text text-anchor="start" x="630.872" y="-827.3" font-family="Times,serif" font-size="14.00">binu_imprint :string</text>
<text text-anchor="start" x="630.872" y="-813.3" font-family="Times,serif" font-size="14.00">binu_pub_date :string</text>
<text text-anchor="start" x="630.872" y="-799.3" font-family="Times,serif" font-size="14.00">binu_srp_inc_vat :string</text>
<text text-anchor="start" x="630.872" y="-785.3" font-family="Times,serif" font-size="14.00">binu_currency :string</text>
<text text-anchor="start" x="630.872" y="-771.3" font-family="Times,serif" font-size="14.00">binu_on_sale_date :string</text>
<text text-anchor="start" x="630.872" y="-757.3" font-family="Times,serif" font-size="14.00">binu_langauge :string</text>
<text text-anchor="start" x="630.872" y="-743.3" font-family="Times,serif" font-size="14.00">binu_geo_rights :string</text>
<text text-anchor="start" x="630.872" y="-729.3" font-family="Times,serif" font-size="14.00">binu_subject1 :string</text>
<text text-anchor="start" x="630.872" y="-715.3" font-family="Times,serif" font-size="14.00">binu_subject2 :string</text>
<text text-anchor="start" x="630.872" y="-701.3" font-family="Times,serif" font-size="14.00">binu_bisac :string</text>
<text text-anchor="start" x="630.872" y="-687.3" font-family="Times,serif" font-size="14.00">binu_bic :string</text>
<text text-anchor="start" x="630.872" y="-673.3" font-family="Times,serif" font-size="14.00">binu_bic2 :string</text>
<text text-anchor="start" x="630.872" y="-659.3" font-family="Times,serif" font-size="14.00">binu_fiction_subject2 :string</text>
<text text-anchor="start" x="630.872" y="-645.3" font-family="Times,serif" font-size="14.00">binu_keyword :string</text>
<text text-anchor="start" x="630.872" y="-631.3" font-family="Times,serif" font-size="14.00">binu_short_description :string</text>
<text text-anchor="start" x="630.872" y="-617.3" font-family="Times,serif" font-size="14.00">binu_not_for_sale :string</text>
<text text-anchor="start" x="630.872" y="-603.3" font-family="Times,serif" font-size="14.00">binu_ready_for_sale :string</text>
<text text-anchor="start" x="630.872" y="-589.3" font-family="Times,serif" font-size="14.00">binu_country :string</text>
<text text-anchor="start" x="630.872" y="-575.3" font-family="Times,serif" font-size="14.00">certified_by_national_board_of_education :boolean</text>
<text text-anchor="start" x="630.872" y="-561.3" font-family="Times,serif" font-size="14.00">book_id :integer</text>
<text text-anchor="start" x="630.872" y="-547.3" font-family="Times,serif" font-size="14.00">geo_restricted :boolean</text>
<text text-anchor="start" x="630.872" y="-533.3" font-family="Times,serif" font-size="14.00">geo_restrictedby :string</text>
<text text-anchor="start" x="630.872" y="-519.3" font-family="Times,serif" font-size="14.00">pricingmodel :string</text>
<text text-anchor="start" x="630.872" y="-505.3" font-family="Times,serif" font-size="14.00">textguide_book_id :string</text>
<text text-anchor="start" x="630.872" y="-491.3" font-family="Times,serif" font-size="14.00">image :string</text>
</g>
<!-- Author&#45;&gt;Book -->
<g id="edge1" class="edge"><title>Author&#45;&gt;Book</title>
<path fill="none" stroke="#05bfeb" d="M766.562,-1668.27C767.185,-1620.98 768.088,-1552.55 769.086,-1476.91"/>
<polygon fill="#05bfeb" stroke="#05bfeb" points="766.559,-1668.46 761.928,-1678.4 766.493,-1673.46 766.427,-1678.45 766.427,-1678.45 766.427,-1678.45 766.493,-1673.46 770.927,-1678.51 766.559,-1668.46 766.559,-1668.46"/>
<polygon fill="#05bfeb" stroke="#05bfeb" points="769.089,-1476.67 773.721,-1466.73 769.155,-1471.67 769.221,-1466.67 769.221,-1466.67 769.221,-1466.67 769.155,-1471.67 764.721,-1466.61 769.089,-1476.67 769.089,-1476.67"/>
</g>
<!-- AuthorsBooks -->
<g id="node4" class="node"><title>AuthorsBooks</title>
<path fill="none" stroke="black" d="M1163.73,-1706.5C1163.73,-1706.5 1255.64,-1706.5 1255.64,-1706.5 1261.64,-1706.5 1267.64,-1712.5 1267.64,-1718.5 1267.64,-1718.5 1267.64,-1752.5 1267.64,-1752.5 1267.64,-1758.5 1261.64,-1764.5 1255.64,-1764.5 1255.64,-1764.5 1163.73,-1764.5 1163.73,-1764.5 1157.73,-1764.5 1151.73,-1758.5 1151.73,-1752.5 1151.73,-1752.5 1151.73,-1718.5 1151.73,-1718.5 1151.73,-1712.5 1157.73,-1706.5 1163.73,-1706.5"/>
<text text-anchor="middle" x="1209.69" y="-1749.3" font-family="Times,serif" font-size="14.00">AuthorsBooks</text>
<polyline fill="none" stroke="black" points="1151.73,-1742.5 1267.64,-1742.5 "/>
<text text-anchor="start" x="1159.73" y="-1727.3" font-family="Times,serif" font-size="14.00">book_id :integer</text>
<text text-anchor="start" x="1159.73" y="-1713.3" font-family="Times,serif" font-size="14.00">author_id :integer</text>
</g>
<!-- Group -->
<g id="node10" class="node"><title>Group</title>
<path fill="none" stroke="black" d="M786.945,-7.5C786.945,-7.5 880.431,-7.5 880.431,-7.5 886.431,-7.5 892.431,-13.5 892.431,-19.5 892.431,-19.5 892.431,-95.5 892.431,-95.5 892.431,-101.5 886.431,-107.5 880.431,-107.5 880.431,-107.5 786.945,-107.5 786.945,-107.5 780.945,-107.5 774.945,-101.5 774.945,-95.5 774.945,-95.5 774.945,-19.5 774.945,-19.5 774.945,-13.5 780.945,-7.5 786.945,-7.5"/>
<text text-anchor="middle" x="833.688" y="-92.3" font-family="Times,serif" font-size="14.00">Group</text>
<polyline fill="none" stroke="black" points="774.945,-85.5 892.431,-85.5 "/>
<text text-anchor="start" x="782.945" y="-70.3" font-family="Times,serif" font-size="14.00">id :integer</text>
<text text-anchor="start" x="782.945" y="-56.3" font-family="Times,serif" font-size="14.00">user_id :integer</text>
<text text-anchor="start" x="782.945" y="-42.3" font-family="Times,serif" font-size="14.00">name :string</text>
<text text-anchor="start" x="782.945" y="-28.3" font-family="Times,serif" font-size="14.00">country :string</text>
<text text-anchor="start" x="782.945" y="-14.3" font-family="Times,serif" font-size="14.00">description :string</text>
</g>
<!-- Book&#45;&gt;Group -->
<g id="edge4" class="edge"><title>Book&#45;&gt;Group</title>
<path fill="none" stroke="#27b6fa" d="M807.38,-473.982C816.443,-330.854 825.152,-193.312 829.925,-117.918"/>
<polygon fill="#27b6fa" stroke="#27b6fa" points="807.357,-474.34 802.234,-484.036 807.041,-479.33 806.725,-484.32 806.725,-484.32 806.725,-484.32 807.041,-479.33 811.216,-484.605 807.357,-474.34 807.357,-474.34"/>
<polygon fill="#27b6fa" stroke="#27b6fa" points="829.941,-117.677 835.064,-107.982 830.257,-112.687 830.573,-107.697 830.573,-107.697 830.573,-107.697 830.257,-112.687 826.082,-107.413 829.941,-117.677 829.941,-117.677"/>
</g>
<!-- Level -->
<g id="node12" class="node"><title>Level</title>
<path fill="none" stroke="black" d="M523.182,-256.5C523.182,-256.5 632.193,-256.5 632.193,-256.5 638.193,-256.5 644.193,-262.5 644.193,-268.5 644.193,-268.5 644.193,-330.5 644.193,-330.5 644.193,-336.5 638.193,-342.5 632.193,-342.5 632.193,-342.5 523.182,-342.5 523.182,-342.5 517.182,-342.5 511.182,-336.5 511.182,-330.5 511.182,-330.5 511.182,-268.5 511.182,-268.5 511.182,-262.5 517.182,-256.5 523.182,-256.5"/>
<text text-anchor="middle" x="577.688" y="-327.3" font-family="Times,serif" font-size="14.00">Level</text>
<polyline fill="none" stroke="black" points="511.182,-320.5 644.193,-320.5 "/>
<text text-anchor="start" x="519.182" y="-305.3" font-family="Times,serif" font-size="14.00">id :integer</text>
<text text-anchor="start" x="519.182" y="-291.3" font-family="Times,serif" font-size="14.00">name :string</text>
<text text-anchor="start" x="519.182" y="-277.3" font-family="Times,serif" font-size="14.00">created_at :datetime</text>
<text text-anchor="start" x="519.182" y="-263.3" font-family="Times,serif" font-size="14.00">updated_at :datetime</text>
</g>
<!-- Book&#45;&gt;Level -->
<g id="edge5" class="edge"><title>Book&#45;&gt;Level</title>
<path fill="none" stroke="#75e8d9" d="M628.785,-474.438C614.491,-425.781 601.953,-383.1 592.874,-352.194"/>
<polygon fill="#75e8d9" stroke="#75e8d9" points="628.843,-474.634 627.344,-485.497 630.252,-479.431 631.661,-484.228 631.661,-484.228 631.661,-484.228 630.252,-479.431 635.979,-482.96 628.843,-474.634 628.843,-474.634"/>
<polygon fill="#75e8d9" stroke="#75e8d9" points="592.868,-352.175 594.367,-341.312 591.459,-347.378 590.05,-342.581 590.05,-342.581 590.05,-342.581 591.459,-347.378 585.732,-343.849 592.868,-352.175 592.868,-352.175"/>
</g>
<!-- Purchase -->
<g id="node14" class="node"><title>Purchase</title>
<path fill="none" stroke="black" d="M927.289,-0.5C927.289,-0.5 1044.09,-0.5 1044.09,-0.5 1050.09,-0.5 1056.09,-6.5 1056.09,-12.5 1056.09,-12.5 1056.09,-102.5 1056.09,-102.5 1056.09,-108.5 1050.09,-114.5 1044.09,-114.5 1044.09,-114.5 927.289,-114.5 927.289,-114.5 921.289,-114.5 915.289,-108.5 915.289,-102.5 915.289,-102.5 915.289,-12.5 915.289,-12.5 915.289,-6.5 921.289,-0.5 927.289,-0.5"/>
<text text-anchor="middle" x="985.688" y="-99.3" font-family="Times,serif" font-size="14.00">Purchase</text>
<polyline fill="none" stroke="black" points="915.289,-92.5 1056.09,-92.5 "/>
<text text-anchor="start" x="923.289" y="-77.3" font-family="Times,serif" font-size="14.00">id :integer</text>
<text text-anchor="start" x="923.289" y="-63.3" font-family="Times,serif" font-size="14.00">user_id :integer</text>
<text text-anchor="start" x="923.289" y="-49.3" font-family="Times,serif" font-size="14.00">book_id :integer</text>
<text text-anchor="start" x="923.289" y="-35.3" font-family="Times,serif" font-size="14.00">purchased_on :date</text>
<text text-anchor="start" x="923.289" y="-21.3" font-family="Times,serif" font-size="14.00">is_purchased :boolean</text>
<text text-anchor="start" x="923.289" y="-7.3" font-family="Times,serif" font-size="14.00">is_approved :boolean</text>
</g>
<!-- Book&#45;&gt;Purchase -->
<g id="edge2" class="edge"><title>Book&#45;&gt;Purchase</title>
<path fill="none" stroke="#1c222f" d="M832.256,-475.972C852.122,-312.52 871.721,-167.903 880.688,-151 887.692,-137.796 897.394,-125.596 908.092,-114.68"/>
<ellipse fill="none" stroke="#1c222f" cx="831.732" cy="-480.295" rx="4.00001" ry="4.00001"/>
<polygon fill="#1c222f" stroke="#1c222f" points="908.093,-114.68 918.392,-110.915 911.67,-111.188 915.248,-107.695 915.248,-107.695 915.248,-107.695 911.67,-111.188 912.105,-104.475 908.093,-114.68 908.093,-114.68"/>
</g>
<!-- Recommendation -->
<g id="node15" class="node"><title>Recommendation</title>
<path fill="none" stroke="black" d="M674.182,-221.5C674.182,-221.5 783.193,-221.5 783.193,-221.5 789.193,-221.5 795.193,-227.5 795.193,-233.5 795.193,-233.5 795.193,-365.5 795.193,-365.5 795.193,-371.5 789.193,-377.5 783.193,-377.5 783.193,-377.5 674.182,-377.5 674.182,-377.5 668.182,-377.5 662.182,-371.5 662.182,-365.5 662.182,-365.5 662.182,-233.5 662.182,-233.5 662.182,-227.5 668.182,-221.5 674.182,-221.5"/>
<text text-anchor="middle" x="728.688" y="-362.3" font-family="Times,serif" font-size="14.00">Recommendation</text>
<polyline fill="none" stroke="black" points="662.182,-355.5 795.193,-355.5 "/>
<text text-anchor="start" x="670.182" y="-340.3" font-family="Times,serif" font-size="14.00">id :integer</text>
<text text-anchor="start" x="670.182" y="-326.3" font-family="Times,serif" font-size="14.00">level :string</text>
<text text-anchor="start" x="670.182" y="-312.3" font-family="Times,serif" font-size="14.00">language :string</text>
<text text-anchor="start" x="670.182" y="-298.3" font-family="Times,serif" font-size="14.00">genre :string</text>
<text text-anchor="start" x="670.182" y="-284.3" font-family="Times,serif" font-size="14.00">country :string</text>
<text text-anchor="start" x="670.182" y="-270.3" font-family="Times,serif" font-size="14.00">organization :string</text>
<text text-anchor="start" x="670.182" y="-256.3" font-family="Times,serif" font-size="14.00">school :string</text>
<text text-anchor="start" x="670.182" y="-242.3" font-family="Times,serif" font-size="14.00">created_at :datetime</text>
<text text-anchor="start" x="670.182" y="-228.3" font-family="Times,serif" font-size="14.00">updated_at :datetime</text>
</g>
<!-- Book&#45;&gt;Recommendation -->
<g id="edge6" class="edge"><title>Book&#45;&gt;Recommendation</title>
<path fill="none" stroke="#a9e2af" d="M740.78,-473.913C738.558,-442.038 736.515,-412.741 734.765,-387.657"/>
<polygon fill="#a9e2af" stroke="#a9e2af" points="740.804,-474.252 737.011,-484.541 741.152,-479.24 741.5,-484.228 741.5,-484.228 741.5,-484.228 741.152,-479.24 745.989,-483.915 740.804,-474.252 740.804,-474.252"/>
<polygon fill="#a9e2af" stroke="#a9e2af" points="734.755,-387.509 738.549,-377.22 734.407,-382.521 734.059,-377.533 734.059,-377.533 734.059,-377.533 734.407,-382.521 729.57,-377.846 734.755,-387.509 734.755,-387.509"/>
</g>
<!-- User -->
<g id="node16" class="node"><title>User</title>
<path fill="none" stroke="black" d="M901.41,-151.5C901.41,-151.5 1081.97,-151.5 1081.97,-151.5 1087.97,-151.5 1093.97,-157.5 1093.97,-163.5 1093.97,-163.5 1093.97,-435.5 1093.97,-435.5 1093.97,-441.5 1087.97,-447.5 1081.97,-447.5 1081.97,-447.5 901.41,-447.5 901.41,-447.5 895.41,-447.5 889.41,-441.5 889.41,-435.5 889.41,-435.5 889.41,-163.5 889.41,-163.5 889.41,-157.5 895.41,-151.5 901.41,-151.5"/>
<text text-anchor="middle" x="991.688" y="-432.3" font-family="Times,serif" font-size="14.00">User</text>
<polyline fill="none" stroke="black" points="889.41,-425.5 1093.97,-425.5 "/>
<text text-anchor="start" x="897.41" y="-410.3" font-family="Times,serif" font-size="14.00">id :integer</text>
<text text-anchor="start" x="897.41" y="-396.3" font-family="Times,serif" font-size="14.00">email :string</text>
<text text-anchor="start" x="897.41" y="-382.3" font-family="Times,serif" font-size="14.00">encrypted_password :string</text>
<text text-anchor="start" x="897.41" y="-368.3" font-family="Times,serif" font-size="14.00">reset_password_token :string</text>
<text text-anchor="start" x="897.41" y="-354.3" font-family="Times,serif" font-size="14.00">reset_password_sent_at :datetime</text>
<text text-anchor="start" x="897.41" y="-340.3" font-family="Times,serif" font-size="14.00">remember_created_at :datetime</text>
<text text-anchor="start" x="897.41" y="-326.3" font-family="Times,serif" font-size="14.00">sign_in_count :integer</text>
<text text-anchor="start" x="897.41" y="-312.3" font-family="Times,serif" font-size="14.00">current_sign_in_at :datetime</text>
<text text-anchor="start" x="897.41" y="-298.3" font-family="Times,serif" font-size="14.00">last_sign_in_at :datetime</text>
<text text-anchor="start" x="897.41" y="-284.3" font-family="Times,serif" font-size="14.00">current_sign_in_ip :string</text>
<text text-anchor="start" x="897.41" y="-270.3" font-family="Times,serif" font-size="14.00">last_sign_in_ip :string</text>
<text text-anchor="start" x="897.41" y="-256.3" font-family="Times,serif" font-size="14.00">created_at :datetime</text>
<text text-anchor="start" x="897.41" y="-242.3" font-family="Times,serif" font-size="14.00">updated_at :datetime</text>
<text text-anchor="start" x="897.41" y="-228.3" font-family="Times,serif" font-size="14.00">can_edit_origins :boolean</text>
<text text-anchor="start" x="897.41" y="-214.3" font-family="Times,serif" font-size="14.00">ops_rel :boolean</text>
<text text-anchor="start" x="897.41" y="-200.3" font-family="Times,serif" font-size="14.00">publishing_rel :boolean</text>
<text text-anchor="start" x="897.41" y="-186.3" font-family="Times,serif" font-size="14.00">DR_rel :boolean</text>
<text text-anchor="start" x="897.41" y="-172.3" font-family="Times,serif" font-size="14.00">role :integer</text>
<text text-anchor="start" x="897.41" y="-158.3" font-family="Times,serif" font-size="14.00">country_id :integer</text>
</g>
<!-- Book&#45;&gt;User -->
<g id="edge3" class="edge"><title>Book&#45;&gt;User</title>
<path fill="none" stroke="#773ddf" d="M931.708,-487.66C935.018,-477.329 938.253,-467.235 941.396,-457.429"/>
<polygon fill="#773ddf" stroke="#773ddf" points="931.683,-487.738 924.346,-495.887 930.157,-492.499 928.631,-497.261 928.631,-497.261 928.631,-497.261 930.157,-492.499 932.916,-498.634 931.683,-487.738 931.683,-487.738"/>
<polygon fill="#773ddf" stroke="#773ddf" points="941.455,-457.244 948.793,-449.094 942.981,-452.482 944.507,-447.721 944.507,-447.721 944.507,-447.721 942.981,-452.482 940.222,-446.347 941.455,-457.244 941.455,-457.244"/>
</g>
<!-- BooksLevels -->
<g id="node6" class="node"><title>BooksLevels</title>
<path fill="none" stroke="black" d="M1297.61,-1706.5C1297.61,-1706.5 1381.76,-1706.5 1381.76,-1706.5 1387.76,-1706.5 1393.76,-1712.5 1393.76,-1718.5 1393.76,-1718.5 1393.76,-1752.5 1393.76,-1752.5 1393.76,-1758.5 1387.76,-1764.5 1381.76,-1764.5 1381.76,-1764.5 1297.61,-1764.5 1297.61,-1764.5 1291.61,-1764.5 1285.61,-1758.5 1285.61,-1752.5 1285.61,-1752.5 1285.61,-1718.5 1285.61,-1718.5 1285.61,-1712.5 1291.61,-1706.5 1297.61,-1706.5"/>
<text text-anchor="middle" x="1339.69" y="-1749.3" font-family="Times,serif" font-size="14.00">BooksLevels</text>
<polyline fill="none" stroke="black" points="1285.61,-1742.5 1393.76,-1742.5 "/>
<text text-anchor="start" x="1293.61" y="-1727.3" font-family="Times,serif" font-size="14.00">book_id :integer</text>
<text text-anchor="start" x="1293.61" y="-1713.3" font-family="Times,serif" font-size="14.00">level_id :integer</text>
</g>
<!-- Country -->
<g id="node7" class="node"><title>Country</title>
<path fill="none" stroke="black" d="M1013.18,-1685.5C1013.18,-1685.5 1122.19,-1685.5 1122.19,-1685.5 1128.19,-1685.5 1134.19,-1691.5 1134.19,-1697.5 1134.19,-1697.5 1134.19,-1773.5 1134.19,-1773.5 1134.19,-1779.5 1128.19,-1785.5 1122.19,-1785.5 1122.19,-1785.5 1013.18,-1785.5 1013.18,-1785.5 1007.18,-1785.5 1001.18,-1779.5 1001.18,-1773.5 1001.18,-1773.5 1001.18,-1697.5 1001.18,-1697.5 1001.18,-1691.5 1007.18,-1685.5 1013.18,-1685.5"/>
<text text-anchor="middle" x="1067.69" y="-1770.3" font-family="Times,serif" font-size="14.00">Country</text>
<polyline fill="none" stroke="black" points="1001.18,-1763.5 1134.19,-1763.5 "/>
<text text-anchor="start" x="1009.18" y="-1748.3" font-family="Times,serif" font-size="14.00">id :integer</text>
<text text-anchor="start" x="1009.18" y="-1734.3" font-family="Times,serif" font-size="14.00">name :string</text>
<text text-anchor="start" x="1009.18" y="-1720.3" font-family="Times,serif" font-size="14.00">continent_id :integer</text>
<text text-anchor="start" x="1009.18" y="-1706.3" font-family="Times,serif" font-size="14.00">created_at :datetime</text>
<text text-anchor="start" x="1009.18" y="-1692.3" font-family="Times,serif" font-size="14.00">updated_at :datetime</text>
</g>
<!-- Country&#45;&gt;Book -->
<g id="edge7" class="edge"><title>Country&#45;&gt;Book</title>
<path fill="none" stroke="#a4858e" d="M1050.63,-1677.68C1036.16,-1630.56 1014.36,-1561.98 992.688,-1503 973.951,-1452.01 953.259,-1398.65 932.316,-1346.28"/>
<ellipse fill="none" stroke="#a4858e" cx="1051.81" cy="-1681.52" rx="4.00001" ry="4.00001"/>
<polygon fill="#a4858e" stroke="#a4858e" points="932.261,-1346.15 932.718,-1335.19 930.401,-1341.5 928.541,-1336.86 928.541,-1336.86 928.541,-1336.86 930.401,-1341.5 924.364,-1338.54 932.261,-1346.15 932.261,-1346.15"/>
</g>
<!-- Country&#45;&gt;User -->
<g id="edge8" class="edge"><title>Country&#45;&gt;User</title>
<path fill="none" stroke="#3c982c" d="M1064.65,-1677.12C1053.8,-1472.44 1016.76,-773.621 1000.02,-457.756"/>
<ellipse fill="none" stroke="#3c982c" cx="1064.86" cy="-1681.14" rx="4" ry="4"/>
<polygon fill="#3c982c" stroke="#3c982c" points="1000.01,-457.589 1003.98,-447.365 999.749,-452.596 999.484,-447.603 999.484,-447.603 999.484,-447.603 999.749,-452.596 994.99,-447.841 1000.01,-457.589 1000.01,-457.589"/>
</g>
<!-- FailedUpdate -->
<g id="node8" class="node"><title>FailedUpdate</title>
<path fill="none" stroke="black" d="M1424.18,-1692.5C1424.18,-1692.5 1533.19,-1692.5 1533.19,-1692.5 1539.19,-1692.5 1545.19,-1698.5 1545.19,-1704.5 1545.19,-1704.5 1545.19,-1766.5 1545.19,-1766.5 1545.19,-1772.5 1539.19,-1778.5 1533.19,-1778.5 1533.19,-1778.5 1424.18,-1778.5 1424.18,-1778.5 1418.18,-1778.5 1412.18,-1772.5 1412.18,-1766.5 1412.18,-1766.5 1412.18,-1704.5 1412.18,-1704.5 1412.18,-1698.5 1418.18,-1692.5 1424.18,-1692.5"/>
<text text-anchor="middle" x="1478.69" y="-1763.3" font-family="Times,serif" font-size="14.00">FailedUpdate</text>
<polyline fill="none" stroke="black" points="1412.18,-1756.5 1545.19,-1756.5 "/>
<text text-anchor="start" x="1420.18" y="-1741.3" font-family="Times,serif" font-size="14.00">id :integer</text>
<text text-anchor="start" x="1420.18" y="-1727.3" font-family="Times,serif" font-size="14.00">book_id :integer</text>
<text text-anchor="start" x="1420.18" y="-1713.3" font-family="Times,serif" font-size="14.00">created_at :datetime</text>
<text text-anchor="start" x="1420.18" y="-1699.3" font-family="Times,serif" font-size="14.00">updated_at :datetime</text>
</g>
<!-- Genre -->
<g id="node9" class="node"><title>Genre</title>
<path fill="none" stroke="black" d="M862.182,-1692.5C862.182,-1692.5 971.193,-1692.5 971.193,-1692.5 977.193,-1692.5 983.193,-1698.5 983.193,-1704.5 983.193,-1704.5 983.193,-1766.5 983.193,-1766.5 983.193,-1772.5 977.193,-1778.5 971.193,-1778.5 971.193,-1778.5 862.182,-1778.5 862.182,-1778.5 856.182,-1778.5 850.182,-1772.5 850.182,-1766.5 850.182,-1766.5 850.182,-1704.5 850.182,-1704.5 850.182,-1698.5 856.182,-1692.5 862.182,-1692.5"/>
<text text-anchor="middle" x="916.688" y="-1763.3" font-family="Times,serif" font-size="14.00">Genre</text>
<polyline fill="none" stroke="black" points="850.182,-1756.5 983.193,-1756.5 "/>
<text text-anchor="start" x="858.182" y="-1741.3" font-family="Times,serif" font-size="14.00">id :integer</text>
<text text-anchor="start" x="858.182" y="-1727.3" font-family="Times,serif" font-size="14.00">name :string</text>
<text text-anchor="start" x="858.182" y="-1713.3" font-family="Times,serif" font-size="14.00">created_at :datetime</text>
<text text-anchor="start" x="858.182" y="-1699.3" font-family="Times,serif" font-size="14.00">updated_at :datetime</text>
</g>
<!-- Genre&#45;&gt;Book -->
<g id="edge9" class="edge"><title>Genre&#45;&gt;Book</title>
<path fill="none" stroke="#85ac4a" d="M907.391,-1684.52C898.632,-1637.43 884.521,-1561.58 868.724,-1476.65"/>
<ellipse fill="none" stroke="#85ac4a" cx="908.124" cy="-1688.46" rx="4.00001" ry="4.00001"/>
<polygon fill="#85ac4a" stroke="#85ac4a" points="868.719,-1476.62 871.314,-1465.97 867.804,-1471.71 866.89,-1466.79 866.89,-1466.79 866.89,-1466.79 867.804,-1471.71 862.466,-1467.62 868.719,-1476.62 868.719,-1476.62"/>
</g>
<!-- Language -->
<g id="node11" class="node"><title>Language</title>
<path fill="none" stroke="black" d="M311.182,-1692.5C311.182,-1692.5 420.193,-1692.5 420.193,-1692.5 426.193,-1692.5 432.193,-1698.5 432.193,-1704.5 432.193,-1704.5 432.193,-1766.5 432.193,-1766.5 432.193,-1772.5 426.193,-1778.5 420.193,-1778.5 420.193,-1778.5 311.182,-1778.5 311.182,-1778.5 305.182,-1778.5 299.182,-1772.5 299.182,-1766.5 299.182,-1766.5 299.182,-1704.5 299.182,-1704.5 299.182,-1698.5 305.182,-1692.5 311.182,-1692.5"/>
<text text-anchor="middle" x="365.688" y="-1763.3" font-family="Times,serif" font-size="14.00">Language</text>
<polyline fill="none" stroke="black" points="299.182,-1756.5 432.193,-1756.5 "/>
<text text-anchor="start" x="307.182" y="-1741.3" font-family="Times,serif" font-size="14.00">id :integer</text>
<text text-anchor="start" x="307.182" y="-1727.3" font-family="Times,serif" font-size="14.00">name :string</text>
<text text-anchor="start" x="307.182" y="-1713.3" font-family="Times,serif" font-size="14.00">created_at :datetime</text>
<text text-anchor="start" x="307.182" y="-1699.3" font-family="Times,serif" font-size="14.00">updated_at :datetime</text>
</g>
<!-- Language&#45;&gt;Book -->
<g id="edge10" class="edge"><title>Language&#45;&gt;Book</title>
<path fill="none" stroke="#5ac6b5" d="M377.927,-1684.56C390.56,-1636.72 412.392,-1563.11 440.688,-1503 489.967,-1398.32 556.427,-1289.36 617.16,-1197.9"/>
<ellipse fill="none" stroke="#5ac6b5" cx="376.915" cy="-1688.44" rx="4.00001" ry="4.00001"/>
<polygon fill="#5ac6b5" stroke="#5ac6b5" points="617.287,-1197.71 626.576,-1191.88 620.058,-1193.55 622.83,-1189.38 622.83,-1189.38 622.83,-1189.38 620.058,-1193.55 619.085,-1186.89 617.287,-1197.71 617.287,-1197.71"/>
</g>
<!-- Publisher -->
<g id="node13" class="node"><title>Publisher</title>
<path fill="none" stroke="black" d="M461.789,-1503.5C461.789,-1503.5 669.586,-1503.5 669.586,-1503.5 675.586,-1503.5 681.586,-1509.5 681.586,-1515.5 681.586,-1515.5 681.586,-1955.5 681.586,-1955.5 681.586,-1961.5 675.586,-1967.5 669.586,-1967.5 669.586,-1967.5 461.789,-1967.5 461.789,-1967.5 455.789,-1967.5 449.789,-1961.5 449.789,-1955.5 449.789,-1955.5 449.789,-1515.5 449.789,-1515.5 449.789,-1509.5 455.789,-1503.5 461.789,-1503.5"/>
<text text-anchor="middle" x="565.688" y="-1952.3" font-family="Times,serif" font-size="14.00">Publisher</text>
<polyline fill="none" stroke="black" points="449.789,-1945.5 681.586,-1945.5 "/>
<text text-anchor="start" x="457.789" y="-1930.3" font-family="Times,serif" font-size="14.00">id :integer</text>
<text text-anchor="start" x="457.789" y="-1916.3" font-family="Times,serif" font-size="14.00">name :string</text>
<text text-anchor="start" x="457.789" y="-1902.3" font-family="Times,serif" font-size="14.00">origin_id :integer</text>
<text text-anchor="start" x="457.789" y="-1888.3" font-family="Times,serif" font-size="14.00">created_at :datetime</text>
<text text-anchor="start" x="457.789" y="-1874.3" font-family="Times,serif" font-size="14.00">updated_at :datetime</text>
<text text-anchor="start" x="457.789" y="-1860.3" font-family="Times,serif" font-size="14.00">address :string</text>
<text text-anchor="start" x="457.789" y="-1846.3" font-family="Times,serif" font-size="14.00">telephone :string</text>
<text text-anchor="start" x="457.789" y="-1832.3" font-family="Times,serif" font-size="14.00">email :string</text>
<text text-anchor="start" x="457.789" y="-1818.3" font-family="Times,serif" font-size="14.00">account_name :string</text>
<text text-anchor="start" x="457.789" y="-1804.3" font-family="Times,serif" font-size="14.00">account_number :string</text>
<text text-anchor="start" x="457.789" y="-1790.3" font-family="Times,serif" font-size="14.00">bank :string</text>
<text text-anchor="start" x="457.789" y="-1776.3" font-family="Times,serif" font-size="14.00">branch :string</text>
<text text-anchor="start" x="457.789" y="-1762.3" font-family="Times,serif" font-size="14.00">swift_code :string</text>
<text text-anchor="start" x="457.789" y="-1748.3" font-family="Times,serif" font-size="14.00">branch_code :string</text>
<text text-anchor="start" x="457.789" y="-1734.3" font-family="Times,serif" font-size="14.00">bank_code :string</text>
<text text-anchor="start" x="457.789" y="-1720.3" font-family="Times,serif" font-size="14.00">name_US_corresponding_bank :string</text>
<text text-anchor="start" x="457.789" y="-1706.3" font-family="Times,serif" font-size="14.00">routing_number :string</text>
<text text-anchor="start" x="457.789" y="-1692.3" font-family="Times,serif" font-size="14.00">contract_end_date :date</text>
<text text-anchor="start" x="457.789" y="-1678.3" font-family="Times,serif" font-size="14.00">free :string</text>
<text text-anchor="start" x="457.789" y="-1664.3" font-family="Times,serif" font-size="14.00">platform_mob_contractdate :date</text>
<text text-anchor="start" x="457.789" y="-1650.3" font-family="Times,serif" font-size="14.00">self_published :boolean</text>
<text text-anchor="start" x="457.789" y="-1636.3" font-family="Times,serif" font-size="14.00">imprints :string</text>
<text text-anchor="start" x="457.789" y="-1622.3" font-family="Times,serif" font-size="14.00">city :string</text>
<text text-anchor="start" x="457.789" y="-1608.3" font-family="Times,serif" font-size="14.00">postal_code :string</text>
<text text-anchor="start" x="457.789" y="-1594.3" font-family="Times,serif" font-size="14.00">country_id :integer</text>
<text text-anchor="start" x="457.789" y="-1580.3" font-family="Times,serif" font-size="14.00">alernate_add1 :string</text>
<text text-anchor="start" x="457.789" y="-1566.3" font-family="Times,serif" font-size="14.00">alernate_add2 :string</text>
<text text-anchor="start" x="457.789" y="-1552.3" font-family="Times,serif" font-size="14.00">website :string</text>
<text text-anchor="start" x="457.789" y="-1538.3" font-family="Times,serif" font-size="14.00">shared_ftp_link :string</text>
<text text-anchor="start" x="457.789" y="-1524.3" font-family="Times,serif" font-size="14.00">platform_mobile :integer</text>
<text text-anchor="start" x="457.789" y="-1510.3" font-family="Times,serif" font-size="14.00">platform_ereader :integer</text>
</g>
<!-- Publisher&#45;&gt;Book -->
<g id="edge11" class="edge"><title>Publisher&#45;&gt;Book</title>
<path fill="none" stroke="#ce0e52" d="M631.899,-1495.51C633.63,-1489.26 635.377,-1482.95 637.138,-1476.6"/>
<ellipse fill="none" stroke="#ce0e52" cx="630.761" cy="-1499.62" rx="4.00001" ry="4.00001"/>
<polygon fill="#ce0e52" stroke="#ce0e52" points="637.247,-1476.2 644.254,-1467.77 638.582,-1471.38 639.917,-1466.57 639.917,-1466.57 639.917,-1466.57 638.582,-1471.38 635.581,-1465.36 637.247,-1476.2 637.247,-1476.2"/>
</g>
<!-- User&#45;&gt;Group -->
<g id="edge12" class="edge"><title>User&#45;&gt;Group</title>
<path fill="none" stroke="#30c095" d="M890.254,-144.423C883.817,-134.645 877.596,-125.196 871.784,-116.367"/>
<ellipse fill="none" stroke="#30c095" cx="892.575" cy="-147.949" rx="4.00002" ry="4.00002"/>
<polygon fill="#30c095" stroke="#30c095" points="871.613,-116.108 869.873,-105.281 868.864,-111.932 866.114,-107.756 866.114,-107.756 866.114,-107.756 868.864,-111.932 862.356,-110.23 871.613,-116.108 871.613,-116.108"/>
</g>
<!-- User&#45;&gt;Purchase -->
<g id="edge13" class="edge"><title>User&#45;&gt;Purchase</title>
<path fill="none" stroke="#ee14d9" d="M987.805,-143.189C987.649,-136.931 987.496,-130.814 987.348,-124.914"/>
<ellipse fill="none" stroke="#ee14d9" cx="987.907" cy="-147.292" rx="4" ry="4"/>
<polygon fill="#ee14d9" stroke="#ee14d9" points="987.339,-124.543 991.587,-114.433 987.214,-119.544 987.089,-114.546 987.089,-114.546 987.089,-114.546 987.214,-119.544 982.59,-114.658 987.339,-124.543 987.339,-124.543"/>
</g>
</g>
</svg>
