<?xml version="1.0" encoding="UTF-8" standalone="no"?>
<!DOCTYPE svg PUBLIC "-//W3C//DTD SVG 1.1//EN"
 "http://www.w3.org/Graphics/SVG/1.1/DTD/svg11.dtd">
<!-- Generated by graphviz version 2.38.0 (20140413.2041)
 -->
<!-- Title: models_diagram Pages: 1 -->
<svg width="1095pt" height="369pt"
 viewBox="0.00 0.00 1094.97 369.00" xmlns="http://www.w3.org/2000/svg" xmlns:xlink="http://www.w3.org/1999/xlink">
<g id="graph0" class="graph" transform="scale(1 1) rotate(0) translate(4 365)">
<title>models_diagram</title>
<polygon fill="white" stroke="none" points="-4,4 -4,-365 1090.97,-365 1090.97,4 -4,4"/>
<!-- _diagram_info -->
<g id="node1" class="node"><title>_diagram_info</title>
<text text-anchor="start" x="8" y="-346.6" font-family="Times,serif" font-size="13.00">Models diagram</text>
<text text-anchor="start" x="8" y="-333.6" font-family="Times,serif" font-size="13.00">Date: Feb 01 2015 &#45; 12:34</text>
<text text-anchor="start" x="8" y="-320.6" font-family="Times,serif" font-size="13.00">Migration version: 20150127203041</text>
<text text-anchor="start" x="8" y="-307.6" font-family="Times,serif" font-size="13.00">Generated by RailRoady 1.3.0</text>
<text text-anchor="start" x="8" y="-294.6" font-family="Times,serif" font-size="13.00">http://railroady.prestonlee.com</text>
</g>
<!-- Ability -->
<g id="node2" class="node"><title>Ability</title>
<polygon fill="none" stroke="black" points="281.358,-342.5 226.018,-342.5 226.018,-306.5 281.358,-306.5 281.358,-342.5"/>
<text text-anchor="middle" x="253.688" y="-320.3" font-family="Times,serif" font-size="14.00">Ability</text>
</g>
<!-- Author -->
<g id="node3" class="node"><title>Author</title>
<ellipse fill="none" stroke="black" cx="334.688" cy="-324.5" rx="35.3216" ry="18"/>
<text text-anchor="middle" x="334.688" y="-320.3" font-family="Times,serif" font-size="14.00">Author</text>
</g>
<!-- Book -->
<g id="node5" class="node"><title>Book</title>
<ellipse fill="none" stroke="black" cx="466.688" cy="-234" rx="29.0429" ry="18"/>
<text text-anchor="middle" x="466.688" y="-229.8" font-family="Times,serif" font-size="14.00">Book</text>
</g>
<!-- Author&#45;&gt;Book -->
<g id="edge1" class="edge"><title>Author&#45;&gt;Book</title>
<path fill="none" stroke="#b69ece" d="M359.737,-302.314C365.817,-297.447 372.385,-292.41 378.688,-288 397.306,-274.974 419.189,-261.786 436.475,-251.824"/>
<polygon fill="#b69ece" stroke="#b69ece" points="359.57,-302.45 348.976,-305.283 355.695,-305.61 351.82,-308.77 351.82,-308.77 351.82,-308.77 355.695,-305.61 354.664,-312.258 359.57,-302.45 359.57,-302.45"/>
<polygon fill="#b69ece" stroke="#b69ece" points="436.87,-251.599 447.786,-250.551 441.213,-249.121 445.556,-246.643 445.556,-246.643 445.556,-246.643 441.213,-249.121 443.326,-242.734 436.87,-251.599 436.87,-251.599"/>
</g>
<!-- AuthorsBooks -->
<g id="node4" class="node"><title>AuthorsBooks</title>
<ellipse fill="none" stroke="black" cx="743.688" cy="-324.5" rx="61.4151" ry="18"/>
<text text-anchor="middle" x="743.688" y="-320.3" font-family="Times,serif" font-size="14.00">AuthorsBooks</text>
</g>
<!-- Country -->
<g id="node8" class="node"><title>Country</title>
<ellipse fill="none" stroke="black" cx="510.688" cy="-162" rx="39.1887" ry="18"/>
<text text-anchor="middle" x="510.688" y="-157.8" font-family="Times,serif" font-size="14.00">Country</text>
</g>
<!-- Book&#45;&gt;Country -->
<g id="edge4" class="edge"><title>Book&#45;&gt;Country</title>
<path fill="none" stroke="#6e61bf" d="M482.319,-208.132C486.404,-201.633 490.811,-194.623 494.904,-188.111"/>
<polygon fill="#6e61bf" stroke="#6e61bf" points="482.215,-208.298 473.083,-214.37 479.554,-212.531 476.893,-216.765 476.893,-216.765 476.893,-216.765 479.554,-212.531 480.703,-219.159 482.215,-208.298 482.215,-208.298"/>
<polygon fill="#6e61bf" stroke="#6e61bf" points="494.911,-188.1 504.042,-182.028 497.572,-183.867 500.232,-179.633 500.232,-179.633 500.232,-179.633 497.572,-183.867 496.423,-177.239 494.911,-188.1 494.911,-188.1"/>
</g>
<!-- Group -->
<g id="node10" class="node"><title>Group</title>
<ellipse fill="none" stroke="black" cx="381.688" cy="-18" rx="32.9081" ry="18"/>
<text text-anchor="middle" x="381.688" y="-13.8" font-family="Times,serif" font-size="14.00">Group</text>
</g>
<!-- Book&#45;&gt;Group -->
<g id="edge5" class="edge"><title>Book&#45;&gt;Group</title>
<path fill="none" stroke="#d303fa" d="M430.772,-222.315C410.443,-214.218 386.737,-200.847 374.688,-180 350.454,-138.072 362.192,-79.2376 372.336,-45.5279"/>
<polygon fill="#d303fa" stroke="#d303fa" points="431.035,-222.412 438.857,-230.098 435.725,-224.144 440.415,-225.876 440.415,-225.876 440.415,-225.876 435.725,-224.144 441.974,-221.655 431.035,-222.412 431.035,-222.412"/>
<polygon fill="#d303fa" stroke="#d303fa" points="372.361,-45.4492 379.68,-37.2831 373.876,-40.6843 375.391,-35.9194 375.391,-35.9194 375.391,-35.9194 373.876,-40.6843 371.103,-34.5557 372.361,-45.4492 372.361,-45.4492"/>
</g>
<!-- Level -->
<g id="node12" class="node"><title>Level</title>
<ellipse fill="none" stroke="black" cx="423.688" cy="-162" rx="30.4775" ry="18"/>
<text text-anchor="middle" x="423.688" y="-157.8" font-family="Times,serif" font-size="14.00">Level</text>
</g>
<!-- Book&#45;&gt;Level -->
<g id="edge6" class="edge"><title>Book&#45;&gt;Level</title>
<path fill="none" stroke="#4d4cac" d="M451.331,-208.001C447.276,-201.4 442.903,-194.281 438.858,-187.697"/>
<polygon fill="#4d4cac" stroke="#4d4cac" points="451.48,-208.244 452.88,-219.12 454.097,-212.504 456.715,-216.765 456.715,-216.765 456.715,-216.765 454.097,-212.504 460.549,-214.409 451.48,-208.244 451.48,-208.244"/>
<polygon fill="#4d4cac" stroke="#4d4cac" points="438.841,-187.668 437.441,-176.792 436.224,-183.408 433.607,-179.147 433.607,-179.147 433.607,-179.147 436.224,-183.408 429.772,-181.503 438.841,-187.668 438.841,-187.668"/>
</g>
<!-- Purchase -->
<g id="node14" class="node"><title>Purchase</title>
<ellipse fill="none" stroke="black" cx="501.688" cy="-18" rx="42.0611" ry="18"/>
<text text-anchor="middle" x="501.688" y="-13.8" font-family="Times,serif" font-size="14.00">Purchase</text>
</g>
<!-- Book&#45;&gt;Purchase -->
<g id="edge2" class="edge"><title>Book&#45;&gt;Purchase</title>
<path fill="none" stroke="#5ace59" d="M503.904,-230.856C567.925,-226.306 694.652,-213.233 721.688,-180 779.118,-109.406 626.172,-54.0321 546.471,-30.8387"/>
<ellipse fill="none" stroke="#5ace59" cx="499.665" cy="-231.146" rx="4" ry="4"/>
<polygon fill="#5ace59" stroke="#5ace59" points="546.285,-30.7856 537.904,-23.7136 541.477,-29.4132 536.669,-28.0407 536.669,-28.0407 536.669,-28.0407 541.477,-29.4132 535.434,-32.3679 546.285,-30.7856 546.285,-30.7856"/>
</g>
<!-- Recommendation -->
<g id="node15" class="node"><title>Recommendation</title>
<ellipse fill="none" stroke="black" cx="640.688" cy="-162" rx="72.4722" ry="18"/>
<text text-anchor="middle" x="640.688" y="-157.8" font-family="Times,serif" font-size="14.00">Recommendation</text>
</g>
<!-- Book&#45;&gt;Recommendation -->
<g id="edge7" class="edge"><title>Book&#45;&gt;Recommendation</title>
<path fill="none" stroke="#3ecf03" d="M500.054,-219.577C526.936,-208.762 565.019,-193.441 594.777,-181.47"/>
<polygon fill="#3ecf03" stroke="#3ecf03" points="499.794,-219.681 488.837,-219.239 495.156,-221.547 490.517,-223.414 490.517,-223.414 490.517,-223.414 495.156,-221.547 492.196,-227.588 499.794,-219.681 499.794,-219.681"/>
<polygon fill="#3ecf03" stroke="#3ecf03" points="594.844,-181.443 605.801,-181.885 599.483,-179.577 604.121,-177.711 604.121,-177.711 604.121,-177.711 599.483,-179.577 602.442,-173.536 594.844,-181.443 594.844,-181.443"/>
</g>
<!-- User -->
<g id="node16" class="node"><title>User</title>
<ellipse fill="none" stroke="black" cx="482.688" cy="-90" rx="27" ry="18"/>
<text text-anchor="middle" x="482.688" y="-85.8" font-family="Times,serif" font-size="14.00">User</text>
</g>
<!-- Book&#45;&gt;User -->
<g id="edge3" class="edge"><title>Book&#45;&gt;User</title>
<path fill="none" stroke="#fe3d66" d="M432.152,-220.162C414.566,-211.656 394.808,-198.591 384.688,-180 377.038,-165.947 376.496,-157.744 384.688,-144 398.257,-121.235 425.374,-107.656 447.65,-99.9515"/>
<polygon fill="#fe3d66" stroke="#fe3d66" points="432.504,-220.321 439.776,-228.529 437.064,-222.373 441.623,-224.425 441.623,-224.425 441.623,-224.425 437.064,-222.373 443.47,-220.322 432.504,-220.321 432.504,-220.321"/>
<polygon fill="#fe3d66" stroke="#fe3d66" points="447.952,-99.8551 458.847,-101.1 452.715,-98.334 457.478,-96.813 457.478,-96.813 457.478,-96.813 452.715,-98.334 456.109,-92.5262 447.952,-99.8551 447.952,-99.8551"/>
</g>
<!-- BooksCountries -->
<g id="node6" class="node"><title>BooksCountries</title>
<ellipse fill="none" stroke="black" cx="889.688" cy="-324.5" rx="67.203" ry="18"/>
<text text-anchor="middle" x="889.688" y="-320.3" font-family="Times,serif" font-size="14.00">BooksCountries</text>
</g>
<!-- BooksLevels -->
<g id="node7" class="node"><title>BooksLevels</title>
<ellipse fill="none" stroke="black" cx="1030.69" cy="-324.5" rx="56.07" ry="18"/>
<text text-anchor="middle" x="1030.69" y="-320.3" font-family="Times,serif" font-size="14.00">BooksLevels</text>
</g>
<!-- Country&#45;&gt;User -->
<g id="edge8" class="edge"><title>Country&#45;&gt;User</title>
<path fill="none" stroke="#bdd118" d="M500.86,-136.431C498.373,-130.214 495.693,-123.514 493.176,-117.22"/>
<ellipse fill="none" stroke="#bdd118" cx="502.424" cy="-140.341" rx="4.00001" ry="4.00001"/>
<polygon fill="#bdd118" stroke="#bdd118" points="493.117,-117.074 493.581,-106.118 491.26,-112.431 489.403,-107.789 489.403,-107.789 489.403,-107.789 491.26,-112.431 485.225,-109.46 493.117,-117.074 493.117,-117.074"/>
</g>
<!-- Genre -->
<g id="node9" class="node"><title>Genre</title>
<ellipse fill="none" stroke="black" cx="419.688" cy="-324.5" rx="31.9219" ry="18"/>
<text text-anchor="middle" x="419.688" y="-320.3" font-family="Times,serif" font-size="14.00">Genre</text>
</g>
<!-- Genre&#45;&gt;Book -->
<g id="edge9" class="edge"><title>Genre&#45;&gt;Book</title>
<path fill="none" stroke="#de4dae" d="M432.322,-299.71C438.81,-287.494 446.714,-272.609 453.306,-260.197"/>
<ellipse fill="none" stroke="#de4dae" cx="430.404" cy="-303.321" rx="4.00002" ry="4.00002"/>
<polygon fill="#de4dae" stroke="#de4dae" points="453.355,-260.104 462.02,-253.383 455.701,-255.688 458.046,-251.273 458.046,-251.273 458.046,-251.273 455.701,-255.688 454.072,-249.162 453.355,-260.104 453.355,-260.104"/>
</g>
<!-- Language -->
<g id="node11" class="node"><title>Language</title>
<ellipse fill="none" stroke="black" cx="514.688" cy="-324.5" rx="44.9423" ry="18"/>
<text text-anchor="middle" x="514.688" y="-320.3" font-family="Times,serif" font-size="14.00">Language</text>
</g>
<!-- Language&#45;&gt;Book -->
<g id="edge10" class="edge"><title>Language&#45;&gt;Book</title>
<path fill="none" stroke="#a5fb0d" d="M501.785,-299.71C495.159,-287.494 487.086,-272.609 480.354,-260.197"/>
<ellipse fill="none" stroke="#a5fb0d" cx="503.752" cy="-303.338" rx="4.00002" ry="4.00002"/>
<polygon fill="#a5fb0d" stroke="#a5fb0d" points="480.281,-260.063 479.469,-249.127 477.897,-255.668 475.514,-251.273 475.514,-251.273 475.514,-251.273 477.897,-255.668 471.558,-253.418 480.281,-260.063 480.281,-260.063"/>
</g>
<!-- Publisher -->
<g id="node13" class="node"><title>Publisher</title>
<ellipse fill="none" stroke="black" cx="620.688" cy="-324.5" rx="43.5319" ry="18"/>
<text text-anchor="middle" x="620.688" y="-320.3" font-family="Times,serif" font-size="14.00">Publisher</text>
</g>
<!-- Publisher&#45;&gt;Book -->
<g id="edge11" class="edge"><title>Publisher&#45;&gt;Book</title>
<path fill="none" stroke="#c5b047" d="M592.955,-303.666C585.221,-298.383 576.732,-292.812 568.688,-288 545.772,-274.291 518.945,-260.434 498.556,-250.328"/>
<ellipse fill="none" stroke="#c5b047" cx="596.521" cy="-306.13" rx="4.00002" ry="4.00002"/>
<polygon fill="#c5b047" stroke="#c5b047" points="498.369,-250.236 491.38,-241.786 493.882,-248.03 489.395,-245.824 489.395,-245.824 489.395,-245.824 493.882,-248.03 487.41,-249.863 498.369,-250.236 498.369,-250.236"/>
</g>
<!-- User&#45;&gt;Group -->
<g id="edge12" class="edge"><title>User&#45;&gt;Group</title>
<path fill="none" stroke="#81702b" d="M458.012,-71.8978C443.432,-61.7927 424.922,-48.9645 409.783,-38.4717"/>
<ellipse fill="none" stroke="#81702b" cx="461.343" cy="-74.2068" rx="4.00002" ry="4.00002"/>
<polygon fill="#81702b" stroke="#81702b" points="409.532,-38.2982 403.877,-28.9032 405.423,-35.45 401.313,-32.6018 401.313,-32.6018 401.313,-32.6018 405.423,-35.45 398.75,-36.3003 409.532,-38.2982 409.532,-38.2982"/>
</g>
<!-- User&#45;&gt;Purchase -->
<g id="edge13" class="edge"><title>User&#45;&gt;Purchase</title>
<path fill="none" stroke="#f779e1" d="M489.401,-64.2675C491.01,-58.34 492.736,-51.9814 494.37,-45.9587"/>
<ellipse fill="none" stroke="#f779e1" cx="488.335" cy="-68.1946" rx="4.00001" ry="4.00001"/>
<polygon fill="#f779e1" stroke="#f779e1" points="494.379,-45.9261 501.342,-37.4541 495.689,-41.1007 496.999,-36.2753 496.999,-36.2753 496.999,-36.2753 495.689,-41.1007 492.656,-35.0965 494.379,-45.9261 494.379,-45.9261"/>
</g>
</g>
</svg>
