<?xml version="1.0" encoding="UTF-8" standalone="no"?>
<!DOCTYPE svg PUBLIC "-//W3C//DTD SVG 1.1//EN"
 "http://www.w3.org/Graphics/SVG/1.1/DTD/svg11.dtd">
<!-- Generated by graphviz version 2.38.0 (20140413.2041)
 -->
<!-- Title: models_diagram Pages: 1 -->
<svg width="1346pt" height="965pt"
 viewBox="0.00 0.00 1346.19 965.00" xmlns="http://www.w3.org/2000/svg" xmlns:xlink="http://www.w3.org/1999/xlink">
<g id="graph0" class="graph" transform="scale(1 1) rotate(0) translate(4 961)">
<title>models_diagram</title>
<polygon fill="white" stroke="none" points="-4,4 -4,-961 1342.19,-961 1342.19,4 -4,4"/>
<!-- _diagram_info -->
<g id="node1" class="node"><title>_diagram_info</title>
<text text-anchor="start" x="8" y="-928.6" font-family="Times,serif" font-size="13.00">Models diagram</text>
<text text-anchor="start" x="8" y="-915.6" font-family="Times,serif" font-size="13.00">Date: Feb 01 2015 &#45; 12:34</text>
<text text-anchor="start" x="8" y="-902.6" font-family="Times,serif" font-size="13.00">Migration version: 20150127203041</text>
<text text-anchor="start" x="8" y="-889.6" font-family="Times,serif" font-size="13.00">Generated by RailRoady 1.3.0</text>
<text text-anchor="start" x="8" y="-876.6" font-family="Times,serif" font-size="13.00">http://railroady.prestonlee.com</text>
</g>
<!-- Ability -->
<g id="node2" class="node"><title>Ability</title>
<polygon fill="none" stroke="black" points="225.853,-884.5 225.853,-928.5 281.522,-928.5 281.522,-884.5 225.853,-884.5"/>
<text text-anchor="middle" x="253.688" y="-913.3" font-family="Times,serif" font-size="14.00">Ability</text>
<polyline fill="none" stroke="black" points="225.853,-906.5 281.522,-906.5 "/>
<text text-anchor="middle" x="253.688" y="-891.3" font-family="Times,serif" font-size="14.00"> </text>
</g>
<!-- Author -->
<g id="node3" class="node"><title>Author</title>
<path fill="none" stroke="black" d="M311.182,-863.5C311.182,-863.5 420.193,-863.5 420.193,-863.5 426.193,-863.5 432.193,-869.5 432.193,-875.5 432.193,-875.5 432.193,-937.5 432.193,-937.5 432.193,-943.5 426.193,-949.5 420.193,-949.5 420.193,-949.5 311.182,-949.5 311.182,-949.5 305.182,-949.5 299.182,-943.5 299.182,-937.5 299.182,-937.5 299.182,-875.5 299.182,-875.5 299.182,-869.5 305.182,-863.5 311.182,-863.5"/>
<text text-anchor="middle" x="365.688" y="-934.3" font-family="Times,serif" font-size="14.00">Author</text>
<polyline fill="none" stroke="black" points="299.182,-927.5 432.193,-927.5 "/>
<text text-anchor="start" x="307.182" y="-912.3" font-family="Times,serif" font-size="14.00">id :integer</text>
<text text-anchor="start" x="307.182" y="-898.3" font-family="Times,serif" font-size="14.00">name :string</text>
<text text-anchor="start" x="307.182" y="-884.3" font-family="Times,serif" font-size="14.00">created_at :datetime</text>
<text text-anchor="start" x="307.182" y="-870.3" font-family="Times,serif" font-size="14.00">updated_at :datetime</text>
</g>
<!-- Book -->
<g id="node5" class="node"><title>Book</title>
<path fill="none" stroke="black" d="M537.182,-607.5C537.182,-607.5 646.193,-607.5 646.193,-607.5 652.193,-607.5 658.193,-613.5 658.193,-619.5 658.193,-619.5 658.193,-807.5 658.193,-807.5 658.193,-813.5 652.193,-819.5 646.193,-819.5 646.193,-819.5 537.182,-819.5 537.182,-819.5 531.182,-819.5 525.182,-813.5 525.182,-807.5 525.182,-807.5 525.182,-619.5 525.182,-619.5 525.182,-613.5 531.182,-607.5 537.182,-607.5"/>
<text text-anchor="middle" x="591.688" y="-804.3" font-family="Times,serif" font-size="14.00">Book</text>
<polyline fill="none" stroke="black" points="525.182,-797.5 658.193,-797.5 "/>
<text text-anchor="start" x="533.182" y="-782.3" font-family="Times,serif" font-size="14.00">id :integer</text>
<text text-anchor="start" x="533.182" y="-768.3" font-family="Times,serif" font-size="14.00">name :string</text>
<text text-anchor="start" x="533.182" y="-754.3" font-family="Times,serif" font-size="14.00">isbn :string</text>
<text text-anchor="start" x="533.182" y="-740.3" font-family="Times,serif" font-size="14.00">description :text</text>
<text text-anchor="start" x="533.182" y="-726.3" font-family="Times,serif" font-size="14.00">created_at :datetime</text>
<text text-anchor="start" x="533.182" y="-712.3" font-family="Times,serif" font-size="14.00">updated_at :datetime</text>
<text text-anchor="start" x="533.182" y="-698.3" font-family="Times,serif" font-size="14.00">image :string</text>
<text text-anchor="start" x="533.182" y="-684.3" font-family="Times,serif" font-size="14.00">asin :string</text>
<text text-anchor="start" x="533.182" y="-670.3" font-family="Times,serif" font-size="14.00">language_id :integer</text>
<text text-anchor="start" x="533.182" y="-656.3" font-family="Times,serif" font-size="14.00">genre_id :integer</text>
<text text-anchor="start" x="533.182" y="-642.3" font-family="Times,serif" font-size="14.00">country_id :integer</text>
<text text-anchor="start" x="533.182" y="-628.3" font-family="Times,serif" font-size="14.00">price :decimal</text>
<text text-anchor="start" x="533.182" y="-614.3" font-family="Times,serif" font-size="14.00">publisher_id :integer</text>
</g>
<!-- Author&#45;&gt;Book -->
<g id="edge1" class="edge"><title>Author&#45;&gt;Book</title>
<path fill="none" stroke="#fd3c9f" d="M423.264,-856.84C451.792,-832.731 486.582,-803.328 517.121,-777.519"/>
<polygon fill="#fd3c9f" stroke="#fd3c9f" points="423.202,-856.893 412.659,-859.911 419.383,-860.12 415.564,-863.348 415.564,-863.348 415.564,-863.348 419.383,-860.12 418.469,-866.785 423.202,-856.893 423.202,-856.893"/>
<polygon fill="#fd3c9f" stroke="#fd3c9f" points="517.15,-777.495 527.692,-774.477 520.969,-774.267 524.787,-771.04 524.787,-771.04 524.787,-771.04 520.969,-774.267 521.883,-767.603 517.15,-777.495 517.15,-777.495"/>
</g>
<!-- AuthorsBooks -->
<g id="node4" class="node"><title>AuthorsBooks</title>
<path fill="none" stroke="black" d="M915.182,-856.5C915.182,-856.5 1024.19,-856.5 1024.19,-856.5 1030.19,-856.5 1036.19,-862.5 1036.19,-868.5 1036.19,-868.5 1036.19,-944.5 1036.19,-944.5 1036.19,-950.5 1030.19,-956.5 1024.19,-956.5 1024.19,-956.5 915.182,-956.5 915.182,-956.5 909.182,-956.5 903.182,-950.5 903.182,-944.5 903.182,-944.5 903.182,-868.5 903.182,-868.5 903.182,-862.5 909.182,-856.5 915.182,-856.5"/>
<text text-anchor="middle" x="969.688" y="-941.3" font-family="Times,serif" font-size="14.00">AuthorsBooks</text>
<polyline fill="none" stroke="black" points="903.182,-934.5 1036.19,-934.5 "/>
<text text-anchor="start" x="911.182" y="-919.3" font-family="Times,serif" font-size="14.00">id :integer</text>
<text text-anchor="start" x="911.182" y="-905.3" font-family="Times,serif" font-size="14.00">book_id :integer</text>
<text text-anchor="start" x="911.182" y="-891.3" font-family="Times,serif" font-size="14.00">author_id :integer</text>
<text text-anchor="start" x="911.182" y="-877.3" font-family="Times,serif" font-size="14.00">created_at :datetime</text>
<text text-anchor="start" x="911.182" y="-863.3" font-family="Times,serif" font-size="14.00">updated_at :datetime</text>
</g>
<!-- Country -->
<g id="node8" class="node"><title>Country</title>
<path fill="none" stroke="black" d="M613.182,-477.5C613.182,-477.5 722.193,-477.5 722.193,-477.5 728.193,-477.5 734.193,-483.5 734.193,-489.5 734.193,-489.5 734.193,-551.5 734.193,-551.5 734.193,-557.5 728.193,-563.5 722.193,-563.5 722.193,-563.5 613.182,-563.5 613.182,-563.5 607.182,-563.5 601.182,-557.5 601.182,-551.5 601.182,-551.5 601.182,-489.5 601.182,-489.5 601.182,-483.5 607.182,-477.5 613.182,-477.5"/>
<text text-anchor="middle" x="667.688" y="-548.3" font-family="Times,serif" font-size="14.00">Country</text>
<polyline fill="none" stroke="black" points="601.182,-541.5 734.193,-541.5 "/>
<text text-anchor="start" x="609.182" y="-526.3" font-family="Times,serif" font-size="14.00">id :integer</text>
<text text-anchor="start" x="609.182" y="-512.3" font-family="Times,serif" font-size="14.00">name :string</text>
<text text-anchor="start" x="609.182" y="-498.3" font-family="Times,serif" font-size="14.00">created_at :datetime</text>
<text text-anchor="start" x="609.182" y="-484.3" font-family="Times,serif" font-size="14.00">updated_at :datetime</text>
</g>
<!-- Book&#45;&gt;Country -->
<g id="edge4" class="edge"><title>Book&#45;&gt;Country</title>
<path fill="none" stroke="#47feb2" d="M637.288,-597.898C640.712,-589.294 644.05,-580.906 647.184,-573.028"/>
<polygon fill="#47feb2" stroke="#47feb2" points="637.275,-597.931 629.397,-605.559 635.427,-602.577 633.578,-607.223 633.578,-607.223 633.578,-607.223 635.427,-602.577 637.759,-608.887 637.275,-597.931 637.275,-597.931"/>
<polygon fill="#47feb2" stroke="#47feb2" points="647.202,-572.983 655.08,-565.356 649.051,-568.338 650.899,-563.692 650.899,-563.692 650.899,-563.692 649.051,-568.338 646.718,-562.028 647.202,-572.983 647.202,-572.983"/>
</g>
<!-- Group -->
<g id="node10" class="node"><title>Group</title>
<path fill="none" stroke="black" d="M399.182,-0.5C399.182,-0.5 508.193,-0.5 508.193,-0.5 514.193,-0.5 520.193,-6.5 520.193,-12.5 520.193,-12.5 520.193,-116.5 520.193,-116.5 520.193,-122.5 514.193,-128.5 508.193,-128.5 508.193,-128.5 399.182,-128.5 399.182,-128.5 393.182,-128.5 387.182,-122.5 387.182,-116.5 387.182,-116.5 387.182,-12.5 387.182,-12.5 387.182,-6.5 393.182,-0.5 399.182,-0.5"/>
<text text-anchor="middle" x="453.688" y="-113.3" font-family="Times,serif" font-size="14.00">Group</text>
<polyline fill="none" stroke="black" points="387.182,-106.5 520.193,-106.5 "/>
<text text-anchor="start" x="395.182" y="-91.3" font-family="Times,serif" font-size="14.00">id :integer</text>
<text text-anchor="start" x="395.182" y="-77.3" font-family="Times,serif" font-size="14.00">user_id :integer</text>
<text text-anchor="start" x="395.182" y="-63.3" font-family="Times,serif" font-size="14.00">name :string</text>
<text text-anchor="start" x="395.182" y="-49.3" font-family="Times,serif" font-size="14.00">country :string</text>
<text text-anchor="start" x="395.182" y="-35.3" font-family="Times,serif" font-size="14.00">description :string</text>
<text text-anchor="start" x="395.182" y="-21.3" font-family="Times,serif" font-size="14.00">created_at :datetime</text>
<text text-anchor="start" x="395.182" y="-7.3" font-family="Times,serif" font-size="14.00">updated_at :datetime</text>
</g>
<!-- Book&#45;&gt;Group -->
<g id="edge5" class="edge"><title>Book&#45;&gt;Group</title>
<path fill="none" stroke="#26a677" d="M516.444,-670.842C480.986,-646.756 442.249,-612.89 422.688,-571 356.466,-429.186 397.327,-240.18 428.37,-138.179"/>
<polygon fill="#26a677" stroke="#26a677" points="516.562,-670.92 522.41,-680.197 520.729,-673.683 524.897,-676.446 524.897,-676.446 524.897,-676.446 520.729,-673.683 527.383,-672.695 516.562,-670.92 516.562,-670.92"/>
<polygon fill="#26a677" stroke="#26a677" points="428.383,-138.137 435.638,-129.915 429.861,-133.361 431.339,-128.584 431.339,-128.584 431.339,-128.584 429.861,-133.361 427.041,-127.254 428.383,-138.137 428.383,-138.137"/>
</g>
<!-- Level -->
<g id="node12" class="node"><title>Level</title>
<path fill="none" stroke="black" d="M462.182,-477.5C462.182,-477.5 571.193,-477.5 571.193,-477.5 577.193,-477.5 583.193,-483.5 583.193,-489.5 583.193,-489.5 583.193,-551.5 583.193,-551.5 583.193,-557.5 577.193,-563.5 571.193,-563.5 571.193,-563.5 462.182,-563.5 462.182,-563.5 456.182,-563.5 450.182,-557.5 450.182,-551.5 450.182,-551.5 450.182,-489.5 450.182,-489.5 450.182,-483.5 456.182,-477.5 462.182,-477.5"/>
<text text-anchor="middle" x="516.688" y="-548.3" font-family="Times,serif" font-size="14.00">Level</text>
<polyline fill="none" stroke="black" points="450.182,-541.5 583.193,-541.5 "/>
<text text-anchor="start" x="458.182" y="-526.3" font-family="Times,serif" font-size="14.00">id :integer</text>
<text text-anchor="start" x="458.182" y="-512.3" font-family="Times,serif" font-size="14.00">name :string</text>
<text text-anchor="start" x="458.182" y="-498.3" font-family="Times,serif" font-size="14.00">created_at :datetime</text>
<text text-anchor="start" x="458.182" y="-484.3" font-family="Times,serif" font-size="14.00">updated_at :datetime</text>
</g>
<!-- Book&#45;&gt;Level -->
<g id="edge6" class="edge"><title>Book&#45;&gt;Level</title>
<path fill="none" stroke="#cf4ec5" d="M546.687,-597.898C543.309,-589.294 540.015,-580.906 536.921,-573.028"/>
<polygon fill="#cf4ec5" stroke="#cf4ec5" points="546.693,-597.915 546.16,-608.868 548.521,-602.569 550.349,-607.223 550.349,-607.223 550.349,-607.223 548.521,-602.569 554.537,-605.578 546.693,-597.915 546.693,-597.915"/>
<polygon fill="#cf4ec5" stroke="#cf4ec5" points="536.91,-573 537.444,-562.047 535.083,-568.346 533.255,-563.692 533.255,-563.692 533.255,-563.692 535.083,-568.346 529.067,-565.337 536.91,-573 536.91,-573"/>
</g>
<!-- Purchase -->
<g id="node14" class="node"><title>Purchase</title>
<path fill="none" stroke="black" d="M585.348,-0.5C585.348,-0.5 706.028,-0.5 706.028,-0.5 712.028,-0.5 718.028,-6.5 718.028,-12.5 718.028,-12.5 718.028,-116.5 718.028,-116.5 718.028,-122.5 712.028,-128.5 706.028,-128.5 706.028,-128.5 585.348,-128.5 585.348,-128.5 579.348,-128.5 573.348,-122.5 573.348,-116.5 573.348,-116.5 573.348,-12.5 573.348,-12.5 573.348,-6.5 579.348,-0.5 585.348,-0.5"/>
<text text-anchor="middle" x="645.688" y="-113.3" font-family="Times,serif" font-size="14.00">Purchase</text>
<polyline fill="none" stroke="black" points="573.348,-106.5 718.028,-106.5 "/>
<text text-anchor="start" x="581.348" y="-91.3" font-family="Times,serif" font-size="14.00">id :integer</text>
<text text-anchor="start" x="581.348" y="-77.3" font-family="Times,serif" font-size="14.00">user_id :integer</text>
<text text-anchor="start" x="581.348" y="-63.3" font-family="Times,serif" font-size="14.00">book_id :integer</text>
<text text-anchor="start" x="581.348" y="-49.3" font-family="Times,serif" font-size="14.00">purchased_on :date</text>
<text text-anchor="start" x="581.348" y="-35.3" font-family="Times,serif" font-size="14.00">is_purchased :boolean</text>
<text text-anchor="start" x="581.348" y="-21.3" font-family="Times,serif" font-size="14.00">is_approved :boolean</text>
<text text-anchor="start" x="581.348" y="-7.3" font-family="Times,serif" font-size="14.00">approved_on :datetime</text>
</g>
<!-- Book&#45;&gt;Purchase -->
<g id="edge2" class="edge"><title>Book&#45;&gt;Purchase</title>
<path fill="none" stroke="#6ea1ad" d="M666.73,-700.739C739.124,-684.971 844.849,-649.28 894.688,-571 988.583,-423.521 830.039,-235.604 725.748,-135.579"/>
<ellipse fill="none" stroke="#6ea1ad" cx="662.427" cy="-701.648" rx="4.00001" ry="4.00001"/>
<polygon fill="#6ea1ad" stroke="#6ea1ad" points="725.583,-135.422 721.438,-125.27 721.96,-131.977 718.337,-128.531 718.337,-128.531 718.337,-128.531 721.96,-131.977 715.236,-131.792 725.583,-135.422 725.583,-135.422"/>
</g>
<!-- Recommendation -->
<g id="node15" class="node"><title>Recommendation</title>
<path fill="none" stroke="black" d="M764.182,-470.5C764.182,-470.5 873.193,-470.5 873.193,-470.5 879.193,-470.5 885.193,-476.5 885.193,-482.5 885.193,-482.5 885.193,-558.5 885.193,-558.5 885.193,-564.5 879.193,-570.5 873.193,-570.5 873.193,-570.5 764.182,-570.5 764.182,-570.5 758.182,-570.5 752.182,-564.5 752.182,-558.5 752.182,-558.5 752.182,-482.5 752.182,-482.5 752.182,-476.5 758.182,-470.5 764.182,-470.5"/>
<text text-anchor="middle" x="818.688" y="-555.3" font-family="Times,serif" font-size="14.00">Recommendation</text>
<polyline fill="none" stroke="black" points="752.182,-548.5 885.193,-548.5 "/>
<text text-anchor="start" x="760.182" y="-533.3" font-family="Times,serif" font-size="14.00">id :integer</text>
<text text-anchor="start" x="760.182" y="-519.3" font-family="Times,serif" font-size="14.00">organization :string</text>
<text text-anchor="start" x="760.182" y="-505.3" font-family="Times,serif" font-size="14.00">school :string</text>
<text text-anchor="start" x="760.182" y="-491.3" font-family="Times,serif" font-size="14.00">created_at :datetime</text>
<text text-anchor="start" x="760.182" y="-477.3" font-family="Times,serif" font-size="14.00">updated_at :datetime</text>
</g>
<!-- Book&#45;&gt;Recommendation -->
<g id="edge7" class="edge"><title>Book&#45;&gt;Recommendation</title>
<path fill="none" stroke="#5a30c6" d="M665.941,-650.022C693.792,-626.588 725.238,-600.129 752.328,-577.336"/>
<polygon fill="#5a30c6" stroke="#5a30c6" points="665.913,-650.046 655.364,-653.041 662.087,-653.265 658.261,-656.484 658.261,-656.484 658.261,-656.484 662.087,-653.265 661.159,-659.928 665.913,-650.046 665.913,-650.046"/>
<polygon fill="#5a30c6" stroke="#5a30c6" points="752.563,-577.138 763.112,-574.143 756.389,-573.919 760.215,-570.699 760.215,-570.699 760.215,-570.699 756.389,-573.919 757.318,-567.256 752.563,-577.138 752.563,-577.138"/>
</g>
<!-- User -->
<g id="node16" class="node"><title>User</title>
<path fill="none" stroke="black" d="M542.41,-165.5C542.41,-165.5 722.966,-165.5 722.966,-165.5 728.966,-165.5 734.966,-171.5 734.966,-177.5 734.966,-177.5 734.966,-421.5 734.966,-421.5 734.966,-427.5 728.966,-433.5 722.966,-433.5 722.966,-433.5 542.41,-433.5 542.41,-433.5 536.41,-433.5 530.41,-427.5 530.41,-421.5 530.41,-421.5 530.41,-177.5 530.41,-177.5 530.41,-171.5 536.41,-165.5 542.41,-165.5"/>
<text text-anchor="middle" x="632.688" y="-418.3" font-family="Times,serif" font-size="14.00">User</text>
<polyline fill="none" stroke="black" points="530.41,-411.5 734.966,-411.5 "/>
<text text-anchor="start" x="538.41" y="-396.3" font-family="Times,serif" font-size="14.00">id :integer</text>
<text text-anchor="start" x="538.41" y="-382.3" font-family="Times,serif" font-size="14.00">email :string</text>
<text text-anchor="start" x="538.41" y="-368.3" font-family="Times,serif" font-size="14.00">encrypted_password :string</text>
<text text-anchor="start" x="538.41" y="-354.3" font-family="Times,serif" font-size="14.00">reset_password_token :string</text>
<text text-anchor="start" x="538.41" y="-340.3" font-family="Times,serif" font-size="14.00">reset_password_sent_at :datetime</text>
<text text-anchor="start" x="538.41" y="-326.3" font-family="Times,serif" font-size="14.00">remember_created_at :datetime</text>
<text text-anchor="start" x="538.41" y="-312.3" font-family="Times,serif" font-size="14.00">sign_in_count :integer</text>
<text text-anchor="start" x="538.41" y="-298.3" font-family="Times,serif" font-size="14.00">current_sign_in_at :datetime</text>
<text text-anchor="start" x="538.41" y="-284.3" font-family="Times,serif" font-size="14.00">last_sign_in_at :datetime</text>
<text text-anchor="start" x="538.41" y="-270.3" font-family="Times,serif" font-size="14.00">current_sign_in_ip :string</text>
<text text-anchor="start" x="538.41" y="-256.3" font-family="Times,serif" font-size="14.00">last_sign_in_ip :string</text>
<text text-anchor="start" x="538.41" y="-242.3" font-family="Times,serif" font-size="14.00">created_at :datetime</text>
<text text-anchor="start" x="538.41" y="-228.3" font-family="Times,serif" font-size="14.00">updated_at :datetime</text>
<text text-anchor="start" x="538.41" y="-214.3" font-family="Times,serif" font-size="14.00">role :integer</text>
<text text-anchor="start" x="538.41" y="-200.3" font-family="Times,serif" font-size="14.00">first_name :string</text>
<text text-anchor="start" x="538.41" y="-186.3" font-family="Times,serif" font-size="14.00">last_name :string</text>
<text text-anchor="start" x="538.41" y="-172.3" font-family="Times,serif" font-size="14.00">country_id :integer</text>
</g>
<!-- Book&#45;&gt;User -->
<g id="edge3" class="edge"><title>Book&#45;&gt;User</title>
<path fill="none" stroke="#fb65b8" d="M516.921,-663.299C487.333,-639.355 456.621,-607.766 440.688,-571 422.839,-529.812 422.229,-510.918 440.688,-470 458.334,-430.882 489.964,-397.169 522.526,-370.344"/>
<polygon fill="#fb65b8" stroke="#fb65b8" points="516.967,-663.335 522.026,-673.064 520.891,-666.434 524.815,-669.533 524.815,-669.533 524.815,-669.533 520.891,-666.434 527.604,-666.001 516.967,-663.335 516.967,-663.335"/>
<polygon fill="#fb65b8" stroke="#fb65b8" points="522.581,-370.299 533.192,-367.53 526.475,-367.163 530.369,-364.026 530.369,-364.026 530.369,-364.026 526.475,-367.163 527.546,-360.521 522.581,-370.299 522.581,-370.299"/>
</g>
<!-- BooksCountries -->
<g id="node6" class="node"><title>BooksCountries</title>
<path fill="none" stroke="black" d="M1066.18,-856.5C1066.18,-856.5 1175.19,-856.5 1175.19,-856.5 1181.19,-856.5 1187.19,-862.5 1187.19,-868.5 1187.19,-868.5 1187.19,-944.5 1187.19,-944.5 1187.19,-950.5 1181.19,-956.5 1175.19,-956.5 1175.19,-956.5 1066.18,-956.5 1066.18,-956.5 1060.18,-956.5 1054.18,-950.5 1054.18,-944.5 1054.18,-944.5 1054.18,-868.5 1054.18,-868.5 1054.18,-862.5 1060.18,-856.5 1066.18,-856.5"/>
<text text-anchor="middle" x="1120.69" y="-941.3" font-family="Times,serif" font-size="14.00">BooksCountries</text>
<polyline fill="none" stroke="black" points="1054.18,-934.5 1187.19,-934.5 "/>
<text text-anchor="start" x="1062.18" y="-919.3" font-family="Times,serif" font-size="14.00">id :integer</text>
<text text-anchor="start" x="1062.18" y="-905.3" font-family="Times,serif" font-size="14.00">country_id :integer</text>
<text text-anchor="start" x="1062.18" y="-891.3" font-family="Times,serif" font-size="14.00">book_id :integer</text>
<text text-anchor="start" x="1062.18" y="-877.3" font-family="Times,serif" font-size="14.00">created_at :datetime</text>
<text text-anchor="start" x="1062.18" y="-863.3" font-family="Times,serif" font-size="14.00">updated_at :datetime</text>
</g>
<!-- BooksLevels -->
<g id="node7" class="node"><title>BooksLevels</title>
<path fill="none" stroke="black" d="M1217.18,-856.5C1217.18,-856.5 1326.19,-856.5 1326.19,-856.5 1332.19,-856.5 1338.19,-862.5 1338.19,-868.5 1338.19,-868.5 1338.19,-944.5 1338.19,-944.5 1338.19,-950.5 1332.19,-956.5 1326.19,-956.5 1326.19,-956.5 1217.18,-956.5 1217.18,-956.5 1211.18,-956.5 1205.18,-950.5 1205.18,-944.5 1205.18,-944.5 1205.18,-868.5 1205.18,-868.5 1205.18,-862.5 1211.18,-856.5 1217.18,-856.5"/>
<text text-anchor="middle" x="1271.69" y="-941.3" font-family="Times,serif" font-size="14.00">BooksLevels</text>
<polyline fill="none" stroke="black" points="1205.18,-934.5 1338.19,-934.5 "/>
<text text-anchor="start" x="1213.18" y="-919.3" font-family="Times,serif" font-size="14.00">id :integer</text>
<text text-anchor="start" x="1213.18" y="-905.3" font-family="Times,serif" font-size="14.00">book_id :integer</text>
<text text-anchor="start" x="1213.18" y="-891.3" font-family="Times,serif" font-size="14.00">level_id :integer</text>
<text text-anchor="start" x="1213.18" y="-877.3" font-family="Times,serif" font-size="14.00">created_at :datetime</text>
<text text-anchor="start" x="1213.18" y="-863.3" font-family="Times,serif" font-size="14.00">updated_at :datetime</text>
</g>
<!-- Country&#45;&gt;User -->
<g id="edge8" class="edge"><title>Country&#45;&gt;User</title>
<path fill="none" stroke="#1c9e95" d="M659.642,-469.156C658.374,-461.224 657.012,-452.7 655.597,-443.849"/>
<ellipse fill="none" stroke="#1c9e95" cx="660.308" cy="-473.325" rx="4.00001" ry="4.00001"/>
<polygon fill="#1c9e95" stroke="#1c9e95" points="655.559,-443.606 658.424,-433.021 654.769,-438.668 653.98,-433.731 653.98,-433.731 653.98,-433.731 654.769,-438.668 649.537,-434.441 655.559,-443.606 655.559,-443.606"/>
</g>
<!-- Genre -->
<g id="node9" class="node"><title>Genre</title>
<path fill="none" stroke="black" d="M462.182,-863.5C462.182,-863.5 571.193,-863.5 571.193,-863.5 577.193,-863.5 583.193,-869.5 583.193,-875.5 583.193,-875.5 583.193,-937.5 583.193,-937.5 583.193,-943.5 577.193,-949.5 571.193,-949.5 571.193,-949.5 462.182,-949.5 462.182,-949.5 456.182,-949.5 450.182,-943.5 450.182,-937.5 450.182,-937.5 450.182,-875.5 450.182,-875.5 450.182,-869.5 456.182,-863.5 462.182,-863.5"/>
<text text-anchor="middle" x="516.688" y="-934.3" font-family="Times,serif" font-size="14.00">Genre</text>
<polyline fill="none" stroke="black" points="450.182,-927.5 583.193,-927.5 "/>
<text text-anchor="start" x="458.182" y="-912.3" font-family="Times,serif" font-size="14.00">id :integer</text>
<text text-anchor="start" x="458.182" y="-898.3" font-family="Times,serif" font-size="14.00">name :string</text>
<text text-anchor="start" x="458.182" y="-884.3" font-family="Times,serif" font-size="14.00">created_at :datetime</text>
<text text-anchor="start" x="458.182" y="-870.3" font-family="Times,serif" font-size="14.00">updated_at :datetime</text>
</g>
<!-- Genre&#45;&gt;Book -->
<g id="edge9" class="edge"><title>Genre&#45;&gt;Book</title>
<path fill="none" stroke="#a24b41" d="M536.298,-855.559C539.554,-847.266 543.046,-838.375 546.634,-829.238"/>
<ellipse fill="none" stroke="#a24b41" cx="534.795" cy="-859.388" rx="4.00001" ry="4.00001"/>
<polygon fill="#a24b41" stroke="#a24b41" points="546.746,-828.95 554.59,-821.287 548.574,-824.296 550.401,-819.642 550.401,-819.642 550.401,-819.642 548.574,-824.296 546.213,-817.998 546.746,-828.95 546.746,-828.95"/>
</g>
<!-- Language -->
<g id="node11" class="node"><title>Language</title>
<path fill="none" stroke="black" d="M613.182,-863.5C613.182,-863.5 722.193,-863.5 722.193,-863.5 728.193,-863.5 734.193,-869.5 734.193,-875.5 734.193,-875.5 734.193,-937.5 734.193,-937.5 734.193,-943.5 728.193,-949.5 722.193,-949.5 722.193,-949.5 613.182,-949.5 613.182,-949.5 607.182,-949.5 601.182,-943.5 601.182,-937.5 601.182,-937.5 601.182,-875.5 601.182,-875.5 601.182,-869.5 607.182,-863.5 613.182,-863.5"/>
<text text-anchor="middle" x="667.688" y="-934.3" font-family="Times,serif" font-size="14.00">Language</text>
<polyline fill="none" stroke="black" points="601.182,-927.5 734.193,-927.5 "/>
<text text-anchor="start" x="609.182" y="-912.3" font-family="Times,serif" font-size="14.00">id :integer</text>
<text text-anchor="start" x="609.182" y="-898.3" font-family="Times,serif" font-size="14.00">name :string</text>
<text text-anchor="start" x="609.182" y="-884.3" font-family="Times,serif" font-size="14.00">created_at :datetime</text>
<text text-anchor="start" x="609.182" y="-870.3" font-family="Times,serif" font-size="14.00">updated_at :datetime</text>
</g>
<!-- Language&#45;&gt;Book -->
<g id="edge10" class="edge"><title>Language&#45;&gt;Book</title>
<path fill="none" stroke="#423698" d="M647.816,-855.559C644.481,-847.179 640.904,-838.187 637.228,-828.949"/>
<ellipse fill="none" stroke="#423698" cx="649.342" cy="-859.394" rx="4.00001" ry="4.00001"/>
<polygon fill="#423698" stroke="#423698" points="637.222,-828.934 637.706,-817.979 635.373,-824.288 633.524,-819.642 633.524,-819.642 633.524,-819.642 635.373,-824.288 629.343,-821.306 637.222,-828.934 637.222,-828.934"/>
</g>
<!-- Publisher -->
<g id="node13" class="node"><title>Publisher</title>
<path fill="none" stroke="black" d="M764.182,-863.5C764.182,-863.5 873.193,-863.5 873.193,-863.5 879.193,-863.5 885.193,-869.5 885.193,-875.5 885.193,-875.5 885.193,-937.5 885.193,-937.5 885.193,-943.5 879.193,-949.5 873.193,-949.5 873.193,-949.5 764.182,-949.5 764.182,-949.5 758.182,-949.5 752.182,-943.5 752.182,-937.5 752.182,-937.5 752.182,-875.5 752.182,-875.5 752.182,-869.5 758.182,-863.5 764.182,-863.5"/>
<text text-anchor="middle" x="818.688" y="-934.3" font-family="Times,serif" font-size="14.00">Publisher</text>
<polyline fill="none" stroke="black" points="752.182,-927.5 885.193,-927.5 "/>
<text text-anchor="start" x="760.182" y="-912.3" font-family="Times,serif" font-size="14.00">id :integer</text>
<text text-anchor="start" x="760.182" y="-898.3" font-family="Times,serif" font-size="14.00">name :string</text>
<text text-anchor="start" x="760.182" y="-884.3" font-family="Times,serif" font-size="14.00">created_at :datetime</text>
<text text-anchor="start" x="760.182" y="-870.3" font-family="Times,serif" font-size="14.00">updated_at :datetime</text>
</g>
<!-- Publisher&#45;&gt;Book -->
<g id="edge11" class="edge"><title>Publisher&#45;&gt;Book</title>
<path fill="none" stroke="#4b1075" d="M762.405,-858.143C733.384,-833.724 697.604,-803.619 666.31,-777.288"/>
<ellipse fill="none" stroke="#4b1075" cx="765.53" cy="-860.772" rx="4.00002" ry="4.00002"/>
<polygon fill="#4b1075" stroke="#4b1075" points="666.109,-777.119 661.355,-767.237 662.283,-773.9 658.457,-770.681 658.457,-770.681 658.457,-770.681 662.283,-773.9 655.56,-774.124 666.109,-777.119 666.109,-777.119"/>
</g>
<!-- User&#45;&gt;Group -->
<g id="edge12" class="edge"><title>User&#45;&gt;Group</title>
<path fill="none" stroke="#6099b6" d="M525.352,-158.784C519.577,-151.266 513.904,-143.883 508.437,-136.766"/>
<ellipse fill="none" stroke="#6099b6" cx="527.942" cy="-162.155" rx="4.00002" ry="4.00002"/>
<polygon fill="#6099b6" stroke="#6099b6" points="508.211,-136.472 505.687,-125.8 505.165,-132.507 502.119,-128.542 502.119,-128.542 502.119,-128.542 505.165,-132.507 498.55,-131.283 508.211,-136.472 508.211,-136.472"/>
</g>
<!-- User&#45;&gt;Purchase -->
<g id="edge13" class="edge"><title>User&#45;&gt;Purchase</title>
<path fill="none" stroke="#fc8482" d="M640.566,-157.306C640.921,-150.936 641.271,-144.67 641.61,-138.589"/>
<ellipse fill="none" stroke="#fc8482" cx="640.341" cy="-161.333" rx="4" ry="4"/>
<polygon fill="#fc8482" stroke="#fc8482" points="641.613,-138.526 646.663,-128.792 641.892,-133.534 642.17,-128.542 642.17,-128.542 642.17,-128.542 641.892,-133.534 637.677,-128.291 641.613,-138.526 641.613,-138.526"/>
</g>
</g>
</svg>
